<svg id="Layer_1" data-name="Layer 1" xmlns="http://www.w3.org/2000/svg" viewBox="0 0 187.35 134.36">
  <defs>
    <style>
      .cls-1 {
        fill: #fff;
      }

      .cls-2 {
        fill: #ff2b06;
      }
    </style>
  </defs>
  <path class="cls-1" d="M1.27,41.05c.07-.76.14-1.51.19-2.26L.37,39.88A9.67,9.67,0,0,1,.27,41C.15,42.15,0,43.37,0,44.59l1,1A43,43,0,0,1,1.27,41.05Z" transform="translate(0 0)"/>
  <path class="cls-2" d="M13.69,57.39A39,39,0,0,0,13,51.68c-.31-1.36-.74-2.72-1.16-4-.19-.59-.38-1.19-.56-1.78s-.33-1.08-.5-1.62A31.72,31.72,0,0,1,9.25,38a43.57,43.57,0,0,1-.12-4.85v-2l-1,1v1a43.88,43.88,0,0,0,.13,5A32.17,32.17,0,0,0,9.83,44.6l.5,1.61c.18.6.37,1.19.56,1.8.41,1.29.84,2.62,1.14,3.94a39.8,39.8,0,0,1,.66,5.33l1.09,1.09C13.75,58,13.72,57.68,13.69,57.39Z" transform="translate(0 0)"/>
  <path class="cls-2" d="M20.53,64.68a2.42,2.42,0,0,1,.23-.52,2.3,2.3,0,0,0,.35-1.22.82.82,0,0,0,.47-.37.47.47,0,0,0,0-.51,1.75,1.75,0,0,0-.18-.29c.09-.09.2-.18.32-.28a2.28,2.28,0,0,0,.76-.9,4.55,4.55,0,0,0,0-2.26,7.91,7.91,0,0,0-1-2.57l-.31-.58A31.51,31.51,0,0,1,19.35,51c-.19-.55-.33-1.1-.47-1.68A12.9,12.9,0,0,0,18,46.61c-.29-.61-.62-1.2-.94-1.79a22.28,22.28,0,0,1-1.23-2.44,17.38,17.38,0,0,1-1-7.89A28.87,28.87,0,0,1,17,26l.5-1.38.23-.65.86-2.31-1.67,1.68-.12.32-.23.65c-.16.45-.33.91-.5,1.37a29.29,29.29,0,0,0-2.26,8.78,18.56,18.56,0,0,0,1.1,8.32,24.22,24.22,0,0,0,1.29,2.54c.31.57.63,1.14.91,1.73a12.13,12.13,0,0,1,.79,2.48c.15.58.3,1.18.5,1.76a32.3,32.3,0,0,0,1.88,4.31c.1.2.21.4.32.6a7.56,7.56,0,0,1,.94,2.25,4.15,4.15,0,0,1,0,1.72,1.6,1.6,0,0,1-.47.5,2.28,2.28,0,0,0-.75.88.46.46,0,0,0,.06.48h0a.49.49,0,0,0-.43.54.53.53,0,0,0,.08.22c.14.21.09.37-.17.86a4,4,0,0,0-.25.56l.84.85A2.57,2.57,0,0,1,20.53,64.68Z" transform="translate(0 0)"/>
  <path class="cls-2" d="M26.11,66.2a10.11,10.11,0,0,1,.29-2.12c.07-.3.13-.59.18-.88a4.33,4.33,0,0,1,.68-1.83.5.5,0,0,0,0-.57l-.1-.12c-.18-1.39.05-1.75.25-2.07a1.87,1.87,0,0,0,.34-.88,2.73,2.73,0,0,0-.26-1.16,2.67,2.67,0,0,1-.13-.4,4.68,4.68,0,0,1-.11-1.12,5.68,5.68,0,0,0-.13-1.3,3,3,0,0,0-.43-.91,2.91,2.91,0,0,1-.25-.42,4.31,4.31,0,0,1-.19-.61,6.1,6.1,0,0,0-.4-1.08c-.31-.6-.61-1.17-.89-1.78s-.45-.93-.69-1.39A13.59,13.59,0,0,1,23.13,45a17.65,17.65,0,0,1-.51-4.46,38.89,38.89,0,0,1,1.54-12.6,53.63,53.63,0,0,1,7-13.94A32.05,32.05,0,0,1,37,7.25c.9-.76,1.82-1.49,2.75-2.23s2.07-1.63,3.08-2.49L42,1.78c-1,.83-2,1.64-3,2.42s-1.82,1.48-2.73,2.24a33.09,33.09,0,0,0-6,6.93,54.28,54.28,0,0,0-7.1,14.2,40.23,40.23,0,0,0-1.55,12.91,18.88,18.88,0,0,0,.55,4.73A14.81,14.81,0,0,0,23.38,48c.23.44.46.89.67,1.34.29.63.59,1.22.92,1.84a3.83,3.83,0,0,1,.31.88c.08.25.15.5.25.73a3.28,3.28,0,0,0,.32.58,1.69,1.69,0,0,1,.3.6,5.67,5.67,0,0,1,.1,1.09,6.69,6.69,0,0,0,.13,1.34,2.11,2.11,0,0,0,.17.5,2.57,2.57,0,0,1,.2.72,1,1,0,0,1-.18.44c-.35.55-.62,1.14-.38,2.85a.44.44,0,0,0,.07.19,5.58,5.58,0,0,0-.67,2c-.05.28-.1.56-.16.84a10.72,10.72,0,0,0-.32,2.33,16.35,16.35,0,0,0,.49,4l1.54,1.54A14.57,14.57,0,0,1,26.11,66.2Z" transform="translate(0 0)"/>
  <path class="cls-2" d="M40.53,84.58c-1.14-1.64-2.31-3.32-3.34-5-.72-1.21-1.37-2.45-1.92-3.49a13.45,13.45,0,0,1-1.06-2.88,4.66,4.66,0,0,0-.4-.95,3.1,3.1,0,0,1-.36-.93,5.74,5.74,0,0,0-.1-.69c0-.23-.06-.48-.1-.7a12,12,0,0,1-.07-2.16v-.89a17.86,17.86,0,0,0-.18-3.1,5.15,5.15,0,0,1,0-1.11,5.41,5.41,0,0,0-.12-1.84,1.34,1.34,0,0,0,.81-1.48,1.93,1.93,0,0,1,0-.34,2.69,2.69,0,0,1,.28-.73,3.68,3.68,0,0,0,.36-.9,13,13,0,0,0,.24-2.16c0-.53.07-1.06.14-1.58.48-3.08-.49-6.1-1.43-9A40.06,40.06,0,0,1,32,40.09c-.63-3.44.37-6.23,1.85-9.81.17-.42.34-.83.5-1.25a22.57,22.57,0,0,1,1.78-3.83,32.43,32.43,0,0,1,3-3.81l.41-.47,1.83-2.13c2.69-3.14,5.43-6.33,8.39-9.28l-.71-.71c-3,3-5.74,6.18-8.44,9.34l-1.83,2.13-.4.46a33.34,33.34,0,0,0-3.06,3.95,24.28,24.28,0,0,0-1.87,4c-.16.42-.32.83-.49,1.23-1.5,3.62-2.59,6.68-1.91,10.38a39,39,0,0,0,1.27,4.62c.9,2.8,1.84,5.71,1.39,8.55a15.88,15.88,0,0,0-.15,1.68,12.24,12.24,0,0,1-.22,2,2.77,2.77,0,0,1-.27.67,3.28,3.28,0,0,0-.38,1,2.26,2.26,0,0,0,0,.52c0,.45,0,.55-.6.66a.48.48,0,0,0-.37.3.47.47,0,0,0,.05.47A3,3,0,0,1,32,62.57,6.46,6.46,0,0,0,32,64a16.46,16.46,0,0,1,.2,2.89v.87a13.09,13.09,0,0,0,.09,2.34l.09.67a4.16,4.16,0,0,0,.1.72,4.11,4.11,0,0,0,.44,1.23,4.22,4.22,0,0,1,.32.76,14.64,14.64,0,0,0,1.15,3.08c.54,1.06,1.2,2.31,1.94,3.54.49.82,1,1.62,1.55,2.42l2.38,2.38Z" transform="translate(0 0)"/>
  <path class="cls-2" d="M43.89,76.08a39.9,39.9,0,0,1-1.79-6.7,46.12,46.12,0,0,1-.74-8.7,15.88,15.88,0,0,0,0-1.69v-.41a5.92,5.92,0,0,1,.07-1.11c0-.21.06-.43.08-.68a7.64,7.64,0,0,0-.19-2.52,10.67,10.67,0,0,0,.14-2.46,17.7,17.7,0,0,1,0-2.06,9.54,9.54,0,0,0-.26-2.66,14.36,14.36,0,0,1-.24-1.6c-.06-.92,0-1.88,0-2.81V41.41a27.46,27.46,0,0,0-.29-3.62c-.12-1-.24-1.93-.27-2.89v-.83a13.39,13.39,0,0,1,.16-3.74,17.87,17.87,0,0,1,1.78-3.81l.19-.33a36.78,36.78,0,0,1,6.88-8,62.08,62.08,0,0,1,4.9-4.12l-.71-.71a59.79,59.79,0,0,0-4.88,4.1,36.84,36.84,0,0,0-7.13,8.22L41.4,26a18.87,18.87,0,0,0-1.88,4,13.76,13.76,0,0,0-.19,4v.82a25.35,25.35,0,0,0,.28,3,27.21,27.21,0,0,1,.28,3.49v4.15a14.44,14.44,0,0,0,.26,1.73,8.68,8.68,0,0,1,.24,2.38,14.16,14.16,0,0,0,0,2.16,9.66,9.66,0,0,1-.14,2.34.56.56,0,0,0,0,.36,5.77,5.77,0,0,1,.19,2.19,1.63,1.63,0,0,1-.08.63,6.3,6.3,0,0,0-.07,1.3V59a14.06,14.06,0,0,1,0,1.59A47.79,47.79,0,0,0,41,69.55a40.6,40.6,0,0,0,2,6.85,38.4,38.4,0,0,0,1.64,4.12l.75-.75A30.63,30.63,0,0,1,43.89,76.08Z" transform="translate(0 0)"/>
  <path class="cls-2" d="M51.12,70.83c-.44-2-.9-4-1.5-6a32.18,32.18,0,0,1-1.2-9.15v-2a4.78,4.78,0,0,1,.08-.75,4.36,4.36,0,0,0,0-1.25,3.45,3.45,0,0,0-.1-.56,1.43,1.43,0,0,1-.06-.65.67.67,0,0,1,.07-.24,1,1,0,0,0-.32-1.32h0L48,48.82a3.86,3.86,0,0,1,.74-.77,6.23,6.23,0,0,0,1.14-1.21,8,8,0,0,0,.9-4,14.89,14.89,0,0,1,.2-2,16.42,16.42,0,0,0,.25-3.21v-.25A13.29,13.29,0,0,1,51.53,35c.07-.35.14-.7.2-1.05a40.65,40.65,0,0,0,.41-4.4,25.85,25.85,0,0,1,.79-6,14.44,14.44,0,0,1,2.63-5.82c.36-.4.76-.81,1.19-1.22L56,15.78c-.43.42-.85.84-1.23,1.26a15.34,15.34,0,0,0-2.88,6.22,28.1,28.1,0,0,0-.82,6.19,36.22,36.22,0,0,1-.4,4.28c-.05.34-.12.69-.19,1a14.38,14.38,0,0,0-.36,2.61v.23a15.84,15.84,0,0,1-.23,3,14.38,14.38,0,0,0-.22,2.17A7.07,7.07,0,0,1,49,46.3a5.26,5.26,0,0,1-1,1c-.58.5-1.12,1-1.08,1.59a1.14,1.14,0,0,0,.57.85l.28-.41-.25.41-.06.17a1.89,1.89,0,0,0-.13.48,2.41,2.41,0,0,0,.09,1,3.25,3.25,0,0,1,.08.43,3.09,3.09,0,0,1-.08.91,7,7,0,0,0-.09.92v2.08a32.89,32.89,0,0,0,1.25,9.46c.58,1.92,1,4,1.47,5.91.23,1.06.47,2.13.73,3.19l.83-.82A25.78,25.78,0,0,0,51.12,70.83Z" transform="translate(0 0)"/>
  <path class="cls-2" d="M58.08,65a7.1,7.1,0,0,0-.45-1.42,6.76,6.76,0,0,1-.39-1.23c-.07-.44-.1-.87-.13-1.31s-.09-1-.17-1.55a29.36,29.36,0,0,1-.54-4.58c0-.79-.07-1.56-.12-2.33-.06-1-.13-2-.13-3a10.15,10.15,0,0,1,.44-2.68c.13-.52.26-1,.36-1.61a34.61,34.61,0,0,0,.53-4.18V39.88a13.53,13.53,0,0,1,.05-1.8,21.21,21.21,0,0,0,.08-3.82,21.65,21.65,0,0,1,.06-3.6c.26-2.13,1.78-4.1,3.12-5.83l.3-.39c.24-.31.47-.63.69-1s.57-.78.86-1.14l-.71-.67c-.33.42-.65.84-1,1.27s-.44.62-.68.92l-.29.39c-1.42,1.83-3,3.92-3.33,6.31a23.72,23.72,0,0,0-.06,3.77A20.22,20.22,0,0,1,56.5,38a13.33,13.33,0,0,0-.06,2v1.2a35.71,35.71,0,0,1-.44,4c-.09.53-.22,1-.34,1.52a10.7,10.7,0,0,0-.51,3c0,1,.07,2,.13,3,0,.76.1,1.52.12,2.3a31,31,0,0,0,.6,4.7,11.75,11.75,0,0,1,.16,1.44,10.89,10.89,0,0,0,.15,1.4A7.26,7.26,0,0,0,56.75,64a6.45,6.45,0,0,1,.4,1.22,19.83,19.83,0,0,0,.53,2.28l.82-.82A9.27,9.27,0,0,1,58.08,65Z" transform="translate(0 0)"/>
  <path class="cls-2" d="M67,56.21c-.71-3.39-1.38-6.6-1.78-10a31.41,31.41,0,0,1,1-10.79A26.15,26.15,0,0,1,69,28.73L68.27,28a26.34,26.34,0,0,0-3,7.16,32.73,32.73,0,0,0-1,11.15c.4,3.46,1.07,6.69,1.79,10.11.16.73.31,1.47.46,2.21l.85-.85Z" transform="translate(0 0)"/>
  <path class="cls-2" d="M71.92,52.75a18.5,18.5,0,0,1-.15-4.46V46.76A22.2,22.2,0,0,1,73,40.68c.09-.31.15-.61.21-.91a5.17,5.17,0,0,1,.33-1.21c.09-.22.2-.42.3-.62a7.07,7.07,0,0,0,.48-1.09l.23-.7c.15-.47.29-.92.45-1.35L74.23,34c-.24.6-.44,1.2-.64,1.82l-.22.68a5.87,5.87,0,0,1-.42,1c-.11.22-.23.45-.33.69a6.85,6.85,0,0,0-.39,1.41c-.06.27-.11.54-.19.82a23.25,23.25,0,0,0-1.23,6.4v1.5A19.91,19.91,0,0,0,71,53c.07.34.15.67.23,1L72,53.2A1.11,1.11,0,0,0,71.92,52.75Z" transform="translate(0 0)"/>
  <path class="cls-2" d="M79.19,42.18A15.09,15.09,0,0,0,80.3,40l-.77-.76a15.41,15.41,0,0,1-1.19,2.41,13.17,13.17,0,0,0-1.62,6.73l1-1A11,11,0,0,1,79.19,42.18Z" transform="translate(0 0)"/>
  <path class="cls-2" d="M130.9,98.4c-.23.49-.47,1-.7,1.51l2.09-2.1c.64-1.27,1.34-2.47,2.07-3.71l-.73-.73A54.32,54.32,0,0,0,130.9,98.4Z" transform="translate(0 0)"/>
  <path class="cls-2" d="M99.27,130.78a19,19,0,0,1-10.5,2.58l1,1a21.61,21.61,0,0,0,7.37-1.4l2.25-2.25Z" transform="translate(0 0)"/>
  <path class="cls-2" d="M51,94.31l-.62.61,1.15,1.15-.27-.91A2,2,0,0,1,51,94.31Z" transform="translate(0 0)"/>
  <path class="cls-2" d="M96.22,126c-1.59,0-3.09-.06-4.54,0-2.56.17-5,.55-7.16.89a10.72,10.72,0,0,1-2.12.07l1,1a7.68,7.68,0,0,0,1.27-.1c2.68-.43,4.8-.72,7.06-.87a39,39,0,0,1,4.46,0,38.22,38.22,0,0,0,7.25-.33l1.33-1.33A30.31,30.31,0,0,1,96.22,126Z" transform="translate(0 0)"/>
  <path class="cls-2" d="M127.57,95.31c-.26.43-.52.89-.78,1.35a20,20,0,0,1-2.09,3.23,13,13,0,0,0-1.59,2.55c-.19.37-.38.75-.62,1.15a16.8,16.8,0,0,1-2.69,3.84,8.56,8.56,0,0,1-1.48.82,4.24,4.24,0,0,0-.95.54,8,8,0,0,0-.88.87l-.32.33a6.15,6.15,0,0,0-1.53,3.76l-.09.54a10.37,10.37,0,0,1-.45,1.72l1.41-1.41v-.14l.09-.55a5.3,5.3,0,0,1,1.26-3.22l.33-.35a7.18,7.18,0,0,1,.78-.78,3.12,3.12,0,0,1,.74-.4,10.93,10.93,0,0,0,1.67-.93l.07-.06a18.9,18.9,0,0,0,2.91-4.13c.21-.37.41-.75.61-1.14a12.21,12.21,0,0,1,1.46-2.36,20.93,20.93,0,0,0,2.2-3.39c.26-.45.51-.9.77-1.33a50.6,50.6,0,0,0,2.6-5.08l-.75-.75A52.94,52.94,0,0,1,127.57,95.31Zm-7.44,12.51Z" transform="translate(0 0)"/>
  <path class="cls-2" d="M61.18,104.08a53.72,53.72,0,0,0-3.8-8c-1-1.78-1.94-3.63-2.84-5.41l-.75.74c.87,1.7,1.76,3.46,2.71,5.16a52.21,52.21,0,0,1,3.74,7.8c.08.21.14.42.22.63l1.6,1.6C61.77,105.79,61.49,104.93,61.18,104.08Z" transform="translate(0 0)"/>
  <path class="cls-2" d="M125.06,86.68c-.65,1.67-1.32,3.41-2,5.09a13.9,13.9,0,0,0-.68,2.28,13.22,13.22,0,0,1-.63,2.12c-.14.33-.28.67-.41,1a19.23,19.23,0,0,1-.9,2,12.19,12.19,0,0,1-3,3.87,7.83,7.83,0,0,1-2.1,1.06,10,10,0,0,0-2.06,1,6.16,6.16,0,0,0-2.54,3.79q-.13.58-.3,1.14a15.61,15.61,0,0,0-.5,2.23,16.46,16.46,0,0,1-.5,2.7,9,9,0,0,1-2.41,4.31c-2,2-5.16,2.53-7.37,2.75a5.83,5.83,0,0,0-1.06.17,7.89,7.89,0,0,1-1.37.17,10.88,10.88,0,0,1-1.14-.06c-.35,0-.71-.07-1.08-.08a11.27,11.27,0,0,1-1.29-.13,10.78,10.78,0,0,0-1.38-.15,17.63,17.63,0,0,0-2.81.2h-.12a19.85,19.85,0,0,1-2.31.11,14,14,0,0,0-3.42.3,13.65,13.65,0,0,1-4.23.19h-.37a5.53,5.53,0,0,1-1.07-.16l1.18,1.17h.21c.62,0,1.23.07,1.84.07a11.44,11.44,0,0,0,2.67-.29,13.15,13.15,0,0,1,3.19-.27,22.13,22.13,0,0,0,2.44-.11h.11a18.21,18.21,0,0,1,2.66-.19,10.72,10.72,0,0,1,1.27.14,13.46,13.46,0,0,0,1.41.14,4.67,4.67,0,0,1,1,.07,7,7,0,0,0,1.24.07,9,9,0,0,0,1.55-.19,10,10,0,0,1,1-.15c2.37-.24,5.77-.8,8-3a9.68,9.68,0,0,0,2.66-4.73,17.38,17.38,0,0,0,.54-2.86,13.59,13.59,0,0,1,.47-2.08c.1-.38.21-.78.31-1.18a5.06,5.06,0,0,1,2.14-3.2,8.2,8.2,0,0,1,1.84-.88,8.12,8.12,0,0,0,2.36-1.21,13.09,13.09,0,0,0,3.23-4.19c.36-.69.66-1.42,1-2.13l.4-1a14,14,0,0,0,.68-2.29,12.81,12.81,0,0,1,.63-2.11c.71-1.7,1.39-3.44,2-5.12l.36-.94-.77-.77C125.42,85.78,125.24,86.23,125.06,86.68Z" transform="translate(0 0)"/>
  <path class="cls-2" d="M73.54,117.37a4.93,4.93,0,0,0-.33-4.42c-.09-.19-.17-.35-.22-.48a8.6,8.6,0,0,1-.25-1,4.8,4.8,0,0,0-.82-2.15,8.77,8.77,0,0,0-.9-.93,4.64,4.64,0,0,1-.87-.9,17.18,17.18,0,0,1-.91-1.56l-.38-.67a7.7,7.7,0,0,1-.78-2.7,10.93,10.93,0,0,0-.62-2.44,34.12,34.12,0,0,0-3.75-6.53c-.52-.72-1.06-1.42-1.6-2.12a45.21,45.21,0,0,1-3-4.16c-.15-.24-.31-.47-.47-.71l-.73.72c.12.17.24.34.34.51a46.5,46.5,0,0,0,3,4.25c.54.69,1.07,1.39,1.58,2.1a33.74,33.74,0,0,1,3.64,6.33,9.49,9.49,0,0,1,.55,2.22,8.54,8.54,0,0,0,.9,3c.13.22.25.44.37.66a13.94,13.94,0,0,0,1,1.65,6,6,0,0,0,1,1.08,5.82,5.82,0,0,1,.78.79,4,4,0,0,1,.63,1.74,8.65,8.65,0,0,0,.29,1.14,4.35,4.35,0,0,0,.25.59,3.81,3.81,0,0,1,.23,3.74l1.24,1.24A2.23,2.23,0,0,0,73.54,117.37Z" transform="translate(0 0)"/>
  <path class="cls-2" d="M121.25,82.4c-.6.93-1.15,1.89-1.69,2.82s-1,1.77-1.54,2.62-.91,1.57-1.31,2.35a24.64,24.64,0,0,1-1.34,2.41,8.37,8.37,0,0,0-.6,1.15,7.07,7.07,0,0,1-.62,1.15,6.31,6.31,0,0,1-.89.9l-.55.5-.9.91-2.14,2.14a7.12,7.12,0,0,0-2.29,5.25,31.76,31.76,0,0,1-.75,5.91,9.29,9.29,0,0,1-2.1,4.1q-.3.3-.6.63c-.29.32-.59.62-.91.91a4.67,4.67,0,0,1-1.12.61c-.31.15-.62.29-.92.47-3.12,1.89-6.43,1.69-9.54,1.18a28.41,28.41,0,0,0-4.7-.41,19.88,19.88,0,0,0-3.44.28c-.71.12-3.08.37-3.65-1.71a15.88,15.88,0,0,1-.51-4.12.45.45,0,0,0,0-.23,3.79,3.79,0,0,1,0-2.92,3.91,3.91,0,0,0,.22-1.44,4.89,4.89,0,0,0-1.14-2.39c-.14-.19-.29-.39-.42-.59-.61-.93-1.29-1.85-2-2.73a29.62,29.62,0,0,1-3.18-4.88c-.21-.43-.39-.87-.57-1.3A11.15,11.15,0,0,0,70,92.39a25.08,25.08,0,0,1-4.55-5.71,14.4,14.4,0,0,1-1.06-3.19,19.87,19.87,0,0,0-.58-2l-.78.79c.14.48.27,1,.39,1.48a15.71,15.71,0,0,0,1.14,3.41,25.9,25.9,0,0,0,4.67,6,10.1,10.1,0,0,1,1.89,3.27c.18.44.37.89.59,1.34a31.21,31.21,0,0,0,3.28,5c.65.87,1.32,1.77,1.91,2.67l.46.65a4,4,0,0,1,1,1.89,3.62,3.62,0,0,1-.2,1.08,4.86,4.86,0,0,0,0,3.52,16.75,16.75,0,0,0,.55,4.28c.52,1.92,2.36,2.85,4.78,2.42a23.74,23.74,0,0,1,7.8.13,24.71,24.71,0,0,0,3.84.36,12.05,12.05,0,0,0,6.39-1.67,7.61,7.61,0,0,1,.81-.4,6.1,6.1,0,0,0,1.34-.76,11.8,11.8,0,0,0,1-1,7.81,7.81,0,0,1,.56-.59,10.16,10.16,0,0,0,2.37-4.59,33,33,0,0,0,.78-6.1,6.13,6.13,0,0,1,2-4.58l2.15-2.15.9-.9c.16-.16.33-.31.51-.47a6.75,6.75,0,0,0,1-1,8.6,8.6,0,0,0,.73-1.33,7.34,7.34,0,0,1,.53-1,21.18,21.18,0,0,0,1.39-2.49,20.65,20.65,0,0,1,1.26-2.28c.46-.73,1.07-1.77,1.57-2.65S121.49,84,122.08,83l.42-.69-.73-.73Z" transform="translate(0 0)"/>
  <path class="cls-2" d="M116.65,78.68a7.52,7.52,0,0,1-.56,1c-.36.52-.69,1-1,1.58-.18.29-.36.58-.55.87l-.27.42c-1,1.61-2.13,3.28-3,5-.42.78-.81,1.57-1.2,2.36-.47.94-.93,1.88-1.44,2.81-.21.39-.39.8-.57,1.22a9,9,0,0,1-.74,1.49,31.94,31.94,0,0,0-1.73,3,26.87,26.87,0,0,0-2,5.1,12.21,12.21,0,0,1-.5,1.41,10.36,10.36,0,0,0-.71,2.38,10.85,10.85,0,0,1-.7,2.36l-.07.18c-.15.42-.27.8-.39,1.15a5.25,5.25,0,0,1-1.39,2.59,6.7,6.7,0,0,1-3.55,2,7.57,7.57,0,0,1-2.6,0l-.68-.08a18.73,18.73,0,0,1-3.32-.73l-.46-.13c-.57-.15-1.15-.28-1.72-.4s-1.17-.24-1.74-.4c-1.62-.46-1.58-2-1.33-4.16a8.44,8.44,0,0,1,.1-.91c0-.29,0-.65,0-1s0-.83.07-1.25a2.36,2.36,0,0,1,.1-.38,1.61,1.61,0,0,0,0-1.29,1.27,1.27,0,0,0-.38-1.52A3.07,3.07,0,0,1,84,103a4.25,4.25,0,0,1-.32-1.26,6,6,0,0,0-.14-.74c-.44-1.82-1.94-3.17-3.27-4.36-.34-.32-.69-.62-1-.93A12.36,12.36,0,0,1,78,94.22c-.29-.41-.6-.82-.93-1.2A11.64,11.64,0,0,1,76,91.4a13.48,13.48,0,0,0-1-1.5c-.42-.54-.88-1-1.31-1.51A16.56,16.56,0,0,1,71.75,86a8.74,8.74,0,0,1-.93-2.31,14.32,14.32,0,0,0-.69-2c-.52-1.09-.95-2.23-1.36-3.34-.17-.46-.35-.92-.53-1.38l-.77.78.36,1c.42,1.12.86,2.28,1.39,3.41a12.41,12.41,0,0,1,.64,1.8,9.74,9.74,0,0,0,1,2.56,17.27,17.27,0,0,0,2,2.54c.42.47.86,1,1.26,1.46a12.94,12.94,0,0,1,.93,1.39,12.81,12.81,0,0,0,1.23,1.78c.32.37.61.76.89,1.14a12.16,12.16,0,0,0,1.38,1.66c.32.32.68.64,1,1,1.28,1.15,2.6,2.34,3,3.86.05.2.08.42.12.65a4.65,4.65,0,0,0,.44,1.59,3.07,3.07,0,0,0,.41.54c.3.33.3.33.12.56a.5.5,0,0,0,0,.68c.1.09.11.17,0,.6a3.58,3.58,0,0,0-.14.54,12.44,12.44,0,0,0-.08,1.37v.93c0,.28-.06.57-.09.88-.21,1.9-.51,4.5,2,5.23.59.17,1.2.3,1.8.42s1.11.24,1.66.39l.46.13a19.85,19.85,0,0,0,3.5.76l.66.07a15.26,15.26,0,0,0,1.65.12,6.21,6.21,0,0,0,1.29-.13,7.79,7.79,0,0,0,4-2.32,6.35,6.35,0,0,0,1.65-3c.11-.34.22-.7.37-1.09l.07-.18a12.09,12.09,0,0,0,.74-2.58,10.09,10.09,0,0,1,.66-2.15c.19-.48.38-1,.53-1.5a25.65,25.65,0,0,1,1.93-4.92A22.22,22.22,0,0,1,108,96a11.07,11.07,0,0,0,.83-1.65c.17-.38.33-.77.53-1.14.51-.94,1-1.89,1.46-2.84.38-.78.77-1.56,1.18-2.33.91-1.71,2-3.36,3-5l.27-.42.56-.88c.32-.52.65-1,1-1.54a9.65,9.65,0,0,0,.62-1.14,8.54,8.54,0,0,1,.66-1.13l-.72-.72A7.51,7.51,0,0,0,116.65,78.68Z" transform="translate(0 0)"/>
  <path class="cls-2" d="M102.44,64.12c-.1.63-.2,1.29-.24,1.93a5.91,5.91,0,0,0,.14,1.39,5.58,5.58,0,0,1,.12,1,3.91,3.91,0,0,0,1.26,3.42c1.49,1.25,2.87.81,4.2.38l.85-.26A9.92,9.92,0,0,0,111,71l.12-.07-.74-.74a8.14,8.14,0,0,1-1.9.86c-.31.08-.61.18-.89.27-1.27.41-2.19.7-3.26-.2-.83-.69-.86-1.53-.9-2.75a7.64,7.64,0,0,0-.14-1.07,5.54,5.54,0,0,1-.12-1.15,12.33,12.33,0,0,1,.23-1.84c0-.31.1-.64.14-1l-.91-.91C102.62,63,102.53,63.55,102.44,64.12Z" transform="translate(0 0)"/>
  <path class="cls-2" d="M113.91,73.82a17.27,17.27,0,0,1-1.69,3.42l-.36.62c-.15.27-.28.55-.42.83a5.46,5.46,0,0,1-.71,1.24c-.15.18-.31.35-.46.51a6.76,6.76,0,0,0-.86,1.06c-.73,1.17-1.47,2.31-2.22,3.46a62.34,62.34,0,0,0-6.67,12.21,10,10,0,0,0-.43,1.8,10.51,10.51,0,0,1-.36,1.57c-.15.42-.29.85-.43,1.28s-.33,1-.51,1.52a21.52,21.52,0,0,1-2.07,4.46c-.65,1-2.93,4.13-5.23,3.58a3.75,3.75,0,0,1-1.43-1.19c-.16-.18-.31-.35-.45-.49a4.07,4.07,0,0,1-1.07-2.63,10.29,10.29,0,0,1,0-1.57,14.77,14.77,0,0,0,0-1.63,7.33,7.33,0,0,0-.23-1.39.61.61,0,0,0,.64-.38.65.65,0,0,0-.19-.67,3.25,3.25,0,0,1-.23-.29A6.81,6.81,0,0,1,88,99.75l0-.27q-.1-.37-.18-.75a5.07,5.07,0,0,0-.43-1.42c-.14-.27-.3-.54-.45-.81s-.43-.76-.62-1.17a7.39,7.39,0,0,0-3.38-4.07c-1.65-1-3.33-2-5.15-3.28a7.36,7.36,0,0,1-3.19-4.42c-.26-1-.43-2.12-.59-3.17s-.31-2.06-.56-3.08c-.17-.71-.37-1.4-.58-2.09-.12-.42-.24-.83-.35-1.25s-.19-.61-.29-.9l-.8.79c0,.13.09.24.12.38l.36,1.26c.2.67.4,1.35.57,2,.24,1,.39,2,.54,3s.34,2.18.61,3.27a8.38,8.38,0,0,0,3.59,5c1.84,1.25,3.55,2.34,5.22,3.32a6.42,6.42,0,0,1,3,3.63c.2.43.43.84.66,1.24s.3.52.43.78a4.29,4.29,0,0,1,.34,1.16,8.52,8.52,0,0,0,.2.84l.08.26a7.67,7.67,0,0,0,.56,1.54h0a.53.53,0,0,0-.36.24.51.51,0,0,0,0,.42,5.62,5.62,0,0,1,.36,1.72,12.51,12.51,0,0,1,0,1.5,12.34,12.34,0,0,0,0,1.72,5.12,5.12,0,0,0,1.36,3.23c.13.13.27.29.41.45a4.28,4.28,0,0,0,1.94,1.5,3.57,3.57,0,0,0,.8.09c2.52,0,4.65-2.79,5.5-4.09a23.08,23.08,0,0,0,2.18-4.67c.19-.51.36-1,.53-1.56s.27-.84.41-1.25a11.17,11.17,0,0,0,.41-1.73,9.18,9.18,0,0,1,.38-1.63,61.6,61.6,0,0,1,6.57-12c.75-1.16,1.5-2.31,2.23-3.48a4.93,4.93,0,0,1,.74-.9l.5-.56a7.25,7.25,0,0,0,.85-1.45c.12-.26.24-.52.38-.76l.36-.61a20.92,20.92,0,0,0,1.64-3.28l-.9-.76Z" transform="translate(0 0)"/>
  <path class="cls-2" d="M93,52.92l.08-.07-.35-.35-1.64,1.63A4.69,4.69,0,0,0,93,52.92Z" transform="translate(0 0)"/>
  <path class="cls-2" d="M94.62,55.59a4.58,4.58,0,0,0-3.22,1l-1.73,1.19a6.24,6.24,0,0,0-1,.92,5.07,5.07,0,0,1-.87.8,2.21,2.21,0,0,1-1.91.48l-.43-.17-.76.75q.4.19.84.36a3.14,3.14,0,0,0,2.8-.58,5.63,5.63,0,0,0,1.06-1,5.18,5.18,0,0,1,.84-.78L92,57.42a3.64,3.64,0,0,1,2.63-.83A4.14,4.14,0,0,1,98.45,60a8.34,8.34,0,0,1,0,1,8.16,8.16,0,0,0,.08,1.4A5.8,5.8,0,0,1,98.64,64,26.57,26.57,0,0,1,98,67.36c-.1.43-.2.86-.28,1.29a23.6,23.6,0,0,0-.38,3.75v.73a6.63,6.63,0,0,0,.91,3.64c1.41,2.3,3.93,1.45,5.76.84l.3-.1a6.22,6.22,0,0,0,.71-.29,5.05,5.05,0,0,1,1.56-.53c.16,0,.39.31.13,1.76a7.22,7.22,0,0,1-2.35,3.65,15.27,15.27,0,0,0-1.79,2.14A4.85,4.85,0,0,1,102,85a5.21,5.21,0,0,0-.67.74,7,7,0,0,0-.62,1.14c-.07.17-.15.33-.23.5-.23.45-.5.9-.77,1.34a14.36,14.36,0,0,0-1.2,2.3,17.27,17.27,0,0,0-.73,3c-.1.53-.19,1.06-.32,1.57s-.18.83-.25,1.25a11.33,11.33,0,0,1-.65,2.43,4.63,4.63,0,0,1-1.63,1.93c-.88.57-1.16.65-1.64.21-1.09-1-1.23-2.63-1.38-4.2a7.74,7.74,0,0,0-.11-1.09,8.34,8.34,0,0,1-.07-2.34,4.37,4.37,0,0,1,.17-.62A3.11,3.11,0,0,0,92,91.44l.09-.13a.51.51,0,0,0,0-.58,1.54,1.54,0,0,1-.15-.89,1.6,1.6,0,0,0-.49-1.42c-.6-.44-1.38,0-1.94.25a3,3,0,0,1-.41.19c-.91.28-1.1.31-1.62-.18s-.54-1.19-.26-2.34v-.2a1.75,1.75,0,0,1,.14-.51A2.64,2.64,0,0,0,87.09,83a4.5,4.5,0,0,0-2.78-1.47,8.38,8.38,0,0,0-2-.12,8.77,8.77,0,0,1-1.7-.08A5,5,0,0,1,78,79.68,9,9,0,0,1,75.57,73c.06-.5.08-1,.1-1.49a11.87,11.87,0,0,1,.08-1.33,4.17,4.17,0,0,1,.13-.76l-1.21,1.2v.89a7.22,7.22,0,0,1-.09,1.4,10,10,0,0,0,2.71,7.54,5.91,5.91,0,0,0,3.18,1.9,10.08,10.08,0,0,0,1.9.09,7.66,7.66,0,0,1,1.79.09,3.61,3.61,0,0,1,2.17,1.08c.46.65.34,1,.13,1.78l-.15.55v.2c-.28,1.11-.56,2.26.54,3.31a2.2,2.2,0,0,0,2.61.41,3.68,3.68,0,0,0,.57-.26c.21-.11.76-.4.9-.33a1.62,1.62,0,0,1,.07.62,3.84,3.84,0,0,0,0,.83.47.47,0,0,0-.1.1.49.49,0,0,0,0,.64c.31.36.2.78,0,1.44a4.05,4.05,0,0,0-.2.76,8.92,8.92,0,0,0,.06,2.63c0,.34.08.69.11,1,.15,1.67.32,3.56,1.69,4.84a1.76,1.76,0,0,0,1.24.55,3,3,0,0,0,1.62-.65,5.55,5.55,0,0,0,2-2.37A12.72,12.72,0,0,0,98.13,97q.11-.62.24-1.2c.13-.54.23-1.08.34-1.63a15.77,15.77,0,0,1,.68-2.79,13.1,13.1,0,0,1,1.12-2.13c.28-.47.56-.93.8-1.41l.26-.54a4.71,4.71,0,0,1,.51-1,5.5,5.5,0,0,1,.56-.62,4.41,4.41,0,0,0,.78-.89,13.32,13.32,0,0,1,1.67-2,8.17,8.17,0,0,0,2.62-4.09c.12-.7.44-2.55-.89-2.87a4,4,0,0,0-2.21.59c-.2.09-.41.18-.62.25l-.3.1c-2.1.71-3.66,1.09-4.59-.42a5.67,5.67,0,0,1-.76-3.06v-.73a25.51,25.51,0,0,1,.35-3.6c.09-.42.19-.84.28-1.27a28.38,28.38,0,0,0,.64-3.43,6.26,6.26,0,0,0-.13-1.88,8.45,8.45,0,0,1-.06-1.23,11.42,11.42,0,0,0,0-1.17,4.35,4.35,0,0,0-.27-1l-3-3A4.46,4.46,0,0,0,94.62,55.59Z" transform="translate(0 0)"/>
  <path class="cls-2" d="M80.5,74a5.56,5.56,0,0,0,1.67,3.48,7.71,7.71,0,0,0,3.1,1.87,6.69,6.69,0,0,0,1.53.3,4.78,4.78,0,0,1,1.58.36,7,7,0,0,1,2.47,2,1.4,1.4,0,0,1,.22.44,2.41,2.41,0,0,0,.25.57,5.73,5.73,0,0,0,.57.73,2.3,2.3,0,0,1,.55.79c.1.23.21.57.35,1,.58,1.71,1.46,4.3,3,4.79a1.59,1.59,0,0,0,.53.08,2.09,2.09,0,0,0,1.23-.44c1.42-1,1.53-2.44,1.64-3.81V86a3.83,3.83,0,0,1,.53-1.53l.06-.12a4.19,4.19,0,0,1,.59-.81,4.9,4.9,0,0,0,.68-1,.62.62,0,0,0,0-.27,8.47,8.47,0,0,1,.75-.93.5.5,0,0,0,0-.67.48.48,0,0,0-.67,0,3.64,3.64,0,0,1-3.8.18c-1.15-.65-1.35-1.5-1.66-2.78l0-.37c-.31-1.23-.53-2.54-.74-3.8v-.17a9.14,9.14,0,0,1,.29-3.41c.08-.34.15-.67.21-1A7.84,7.84,0,0,0,95,65.43a5.2,5.2,0,0,0-2.67-2.75,4.05,4.05,0,0,0-2.64.69c-.29.14-.55.28-.79.37a18.54,18.54,0,0,1-2.06.58c-.58.14-1.18.28-1.78.48a8.64,8.64,0,0,1-1,.26,4.85,4.85,0,0,0-2.56,1.21A5.11,5.11,0,0,0,79.61,70a9.79,9.79,0,0,0,.49,2.51C80.26,73,80.39,73.46,80.5,74Zm1.74-7a4,4,0,0,1,2.08-.92c.35-.09.7-.17,1.05-.29.56-.18,1.14-.32,1.71-.46a17.93,17.93,0,0,0,2.17-.62c.3-.12.6-.26.89-.41a4.5,4.5,0,0,1,1.74-.63h.22a4.66,4.66,0,0,1,2,2.14,7,7,0,0,1,.29,3.3c-.06.33-.13.66-.2,1a9.65,9.65,0,0,0-.3,3.78V74c.22,1.28.44,2.61.76,3.87l.08.35c.32,1.31.61,2.54,2.13,3.41a4.68,4.68,0,0,0,3.22.48v.09a5.3,5.3,0,0,1-.46.6,5.39,5.39,0,0,0-.72,1l-.06.13a4.46,4.46,0,0,0-.63,1.9V86c-.1,1.29-.18,2.32-1.23,3.07a.92.92,0,0,1-.87.22c-1-.34-1.89-2.83-2.35-4.16-.14-.42-.26-.78-.36-1a3.64,3.64,0,0,0-.74-1.08,5,5,0,0,1-.46-.57,2,2,0,0,1-.2-.42,2.29,2.29,0,0,0-.37-.73,7.88,7.88,0,0,0-2.84-2.28,6.06,6.06,0,0,0-1.88-.39,6.56,6.56,0,0,1-1.32-.26,6.73,6.73,0,0,1-2.71-1.63,4.69,4.69,0,0,1-1.4-2.93,13.37,13.37,0,0,0-.4-1.66A8.64,8.64,0,0,1,80.63,70c0-1.27.62-2,1.61-3Z" transform="translate(0 0)"/>
  <path class="cls-2" d="M84.69,73.93a.5.5,0,0,0,.22.4.53.53,0,0,0,.46,0,4,4,0,0,1,.67.56l.77.76,1,1a6,6,0,0,0,1.75,1.19l.73.39a7.87,7.87,0,0,0,1.52.73,2.63,2.63,0,0,0,.79.15,1.1,1.1,0,0,0,.7-.22,1.24,1.24,0,0,0,.38-1.12,3.09,3.09,0,0,0-1-1.8,4.42,4.42,0,0,1-.39-.47,6.65,6.65,0,0,1-.61-1.11,9.33,9.33,0,0,0-.5-1l-.29-.45c-.26-.37-.26-.37-.08-1a3.81,3.81,0,0,1,.72-1.17A2.87,2.87,0,0,0,92.35,68a3.19,3.19,0,0,0-1.79-2.26A2.82,2.82,0,0,0,88,66a5.32,5.32,0,0,0-3,3.78,7.14,7.14,0,0,0-.12,2.35v.74l-.2-.17a.51.51,0,0,0-.7.09.48.48,0,0,0,.08.69h0C84.27,73.63,84.48,73.79,84.69,73.93Zm1.24-4c.33-1.49,1.1-2.15,2.6-3a1.81,1.81,0,0,1,1.66-.15,2.26,2.26,0,0,1,1.22,1.58,2,2,0,0,1-.63,1.86,4.66,4.66,0,0,0-.89,1.5,1.64,1.64,0,0,0,.2,1.82c.08.11.17.24.27.4s.3.57.45.87a7.55,7.55,0,0,0,.7,1.28,5.47,5.47,0,0,0,.49.59,2.21,2.21,0,0,1,.71,1.21,1.13,1.13,0,0,1,0,.26,1.23,1.23,0,0,1-.57-.1,8.18,8.18,0,0,1-1.33-.65L90,77a4.87,4.87,0,0,1-1.46-1l-1-1-.76-.75a5.5,5.5,0,0,0-.91-.75,7.42,7.42,0,0,0,0-1.49,6.16,6.16,0,0,1,.06-2Z" transform="translate(0 0)"/>
  <path class="cls-2" d="M134,10.48a16.07,16.07,0,0,0-.8,1.61L143,2.34A21.26,21.26,0,0,0,134,10.48Z" transform="translate(0 0)"/>
  <path class="cls-2" d="M145.26,0l-.3.3.43-.17Z" transform="translate(0 0)"/>
  <path class="cls-2" d="M108.21,37l-2,2a46.59,46.59,0,0,0-1.81,5l.8.8A51.52,51.52,0,0,1,108.21,37Z" transform="translate(0 0)"/>
  <path class="cls-2" d="M112,47.36l.21-.69A21.4,21.4,0,0,1,113.56,43c.4-.77.8-1.55,1.21-2.32.68-1.28,1.38-2.6,2-3.92,1.34-2.8,2.54-5.71,3.7-8.52.82-2,1.67-4.05,2.56-6.05l-1.92,1.92c-.53,1.26-1.06,2.51-1.56,3.75-1.16,2.8-2.36,5.69-3.68,8.47-.62,1.3-1.31,2.62-2,3.89l-1.22,2.32a22.26,22.26,0,0,0-1.42,3.8l-.21.69a23.83,23.83,0,0,0-.65,2.9l.88.88A25.8,25.8,0,0,1,112,47.36Z" transform="translate(0 0)"/>
  <path class="cls-2" d="M145.18,1.28l1-.38-.77-.77L145,.3l-2,2C143.64,2,144.39,1.61,145.18,1.28Z" transform="translate(0 0)"/>
  <path class="cls-2" d="M114.08,50.1a25.68,25.68,0,0,1,2.3-6.37c.88-1.55,1.85-3.1,2.79-4.6,1.16-1.85,2.36-3.77,3.42-5.72.3-.56.56-1.12.8-1.67a17,17,0,0,1,1-2.06,24.2,24.2,0,0,0,1.64-3c.35-.81.77-1.62,1.18-2.4a20.65,20.65,0,0,0,1-2.1,20.11,20.11,0,0,1,1.42-2.46,20,20,0,0,0,1.62-2.89c.31-.75.59-1.52.87-2.29s.61-1.65,1-2.46l-1.77,1.77a1.14,1.14,0,0,1-.13.35c-.27.76-.54,1.51-.86,2.24a18,18,0,0,1-1.54,2.74,23.56,23.56,0,0,0-1.48,2.58c-.32.7-.67,1.38-1,2.06s-.84,1.62-1.21,2.46a20.9,20.9,0,0,1-1.57,2.86,17.73,17.73,0,0,0-1.09,2.18c-.24.53-.48,1.08-.77,1.6-1,1.93-2.24,3.83-3.39,5.67-.94,1.51-1.91,3.07-2.81,4.64a26.44,26.44,0,0,0-2.4,6.63,20.08,20.08,0,0,0-.42,2.42l.92.91A20.25,20.25,0,0,1,114.08,50.1Z" transform="translate(0 0)"/>
  <path class="cls-2" d="M120.68,59.77a14.89,14.89,0,0,1-.91-8.24,10.42,10.42,0,0,1,.92-2.48,16.17,16.17,0,0,0,.7-1.66c.19-.52.34-1,.5-1.58.21-.72.4-1.4.67-2.07.52-1.24,1.11-2.49,1.68-3.69.66-1.38,1.34-2.81,1.91-4.27A56.45,56.45,0,0,1,131,25.61a64.75,64.75,0,0,1,4.51-5.93L137,17.81l.94-1.19a31,31,0,0,1,4.44-4.86c.51-.41,1-.84,1.51-1.26A45.2,45.2,0,0,1,148.43,7a27.73,27.73,0,0,1,2.4-1.4l-.74-.74c-.74.41-1.48.84-2.2,1.3a47.15,47.15,0,0,0-4.64,3.56c-.5.42-1,.85-1.51,1.26a31,31,0,0,0-4.58,5c-.31.4-.63.79-.94,1.18L134.7,19a63.47,63.47,0,0,0-4.59,6,56.75,56.75,0,0,0-4.93,10.35c-.56,1.42-1.23,2.83-1.88,4.2s-1.18,2.47-1.7,3.74a20.37,20.37,0,0,0-.71,2.17c-.15.51-.3,1-.48,1.53s-.42,1.06-.67,1.57a11.47,11.47,0,0,0-1,2.71,15.13,15.13,0,0,0,.54,7.58l1.72,1.7Z" transform="translate(0 0)"/>
  <path class="cls-2" d="M127.19,66.68a22,22,0,0,1-.87-2.52,20.39,20.39,0,0,0-.9-2.63,18.11,18.11,0,0,1-1.18-10.75c.12-.54.21-1.08.3-1.63a16.45,16.45,0,0,1,1-3.84,7.9,7.9,0,0,1,.67-1.12c.15-.23.3-.45.44-.69l.15-.28c.21-.39.32-.56.54-.6h.08c3.41-1.28,3.35-3,3.3-4.18v-.51a5.37,5.37,0,0,1,.58-2c.16-.38.32-.76.45-1.15a10.42,10.42,0,0,1,.71-1.69c.43-.83.78-1.67,1.12-2.48A23.18,23.18,0,0,1,135,27.43a40.9,40.9,0,0,1,3.77-5.38,29.83,29.83,0,0,1,6.53-5.37l2.4-1.62c2.11-1.43,4.29-2.91,6.5-4.2l1.23-.71-.73-.73-1,.58c-2.25,1.31-4.44,2.79-6.56,4.23l-2.4,1.62a30.94,30.94,0,0,0-6.69,5.54,42.86,42.86,0,0,0-3.87,5.5,26.27,26.27,0,0,0-1.55,3.26c-.33.79-.67,1.62-1.08,2.41a11.19,11.19,0,0,0-.79,1.85,9.55,9.55,0,0,1-.41,1,6.36,6.36,0,0,0-.66,2.33v.58c.05,1.12.08,2.18-2.62,3.2a1.84,1.84,0,0,0-1.18,1.16l-.13.23c-.13.22-.27.43-.41.64a7.8,7.8,0,0,0-.75,1.28,16.83,16.83,0,0,0-1,4.07c-.09.54-.18,1.07-.29,1.59a19.2,19.2,0,0,0,1.25,11.37,22.35,22.35,0,0,1,.86,2.5c.07.27.16.54.25.82l1.71,1.72A1.62,1.62,0,0,1,127.19,66.68Z" transform="translate(0 0)"/>
  <path class="cls-2" d="M146.4,82.76a28,28,0,0,1-2.66-3.57c-.14-.25-.27-.51-.39-.77a5.25,5.25,0,0,0-.66-1.18,11.32,11.32,0,0,0-1-1.08,10.45,10.45,0,0,1-.8-.83c-.21-.24-.39-.5-.58-.75a8.4,8.4,0,0,0-1-1.23,7.74,7.74,0,0,1-1.72-2.06l-.88-1.61c-.56-1.06-1.12-2.12-1.74-3.22a26.77,26.77,0,0,0-2.83-4.32c-.3-.36-.65-.73-1-1.1a10.91,10.91,0,0,1-2.2-2.89,8,8,0,0,1-.44-3.47v-.79a6.5,6.5,0,0,1,.76-3.51,9.38,9.38,0,0,1,2.23-2.26,8.1,8.1,0,0,0,2.9-3.47,9,9,0,0,0,.5-4.4,3.52,3.52,0,0,0-.24-.78,1.54,1.54,0,0,1-.17-.92.85.85,0,0,1,.11-.26,1.54,1.54,0,0,0,.19-.46,3.57,3.57,0,0,0,.09-.8,2.56,2.56,0,0,1,.07-.62,8.51,8.51,0,0,1,.43-1.09A7.32,7.32,0,0,0,135.9,34l.1-.41a5.09,5.09,0,0,1,.59-1.65,13.43,13.43,0,0,1,2.07-2.32l.58-.58c.36-.35.77-.68,1.16-1s.86-.71,1.25-1.1c.21-.21.4-.42.6-.63a12,12,0,0,1,1.89-1.73,12.18,12.18,0,0,1,1.49-.85,9.54,9.54,0,0,0,1-.55l.2-.11a4.43,4.43,0,0,1,1.47-.66.51.51,0,0,0,.29-.13c.75-.71,1.64-1.44,2.42-2.08.59-.48,1.12-.92,1.51-1.28a21.31,21.31,0,0,1,6.07-4.08l1-.43-.76-.76-.61.27a22,22,0,0,0-6.34,4.27c-.38.34-.9.77-1.47,1.24-.76.62-1.61,1.32-2.36,2a5.56,5.56,0,0,0-1.7.77l-.19.11c-.32.19-.65.35-1,.52a14,14,0,0,0-1.6.91,12.61,12.61,0,0,0-2.05,1.88l-.58.61a14,14,0,0,1-1.17,1,15.83,15.83,0,0,0-1.23,1.08l-.58.56a13.65,13.65,0,0,0-2.22,2.52,6,6,0,0,0-.73,1.91l-.1.4a7.28,7.28,0,0,1-.46,1.17,7.09,7.09,0,0,0-.5,1.25,4,4,0,0,0-.1.85,1.94,1.94,0,0,1-.06.59.94.94,0,0,1-.1.23,1.78,1.78,0,0,0-.21.54,2.52,2.52,0,0,0,.22,1.48,3.93,3.93,0,0,1,.19.58,8.31,8.31,0,0,1-.46,3.89,7.24,7.24,0,0,1-2.59,3,10,10,0,0,0-2.45,2.52,7.53,7.53,0,0,0-.91,4v.77a9.07,9.07,0,0,0,.52,4,11.64,11.64,0,0,0,2.4,3.18c.33.36.67.71,1,1.06A26.66,26.66,0,0,1,134.14,67c.58,1,1.14,2.08,1.7,3.13.28.53.56,1.06.85,1.59a8.63,8.63,0,0,0,1.9,2.31,8.64,8.64,0,0,1,.9,1.1c.2.27.41.55.62.81a12.1,12.1,0,0,0,.88.9,8.72,8.72,0,0,1,.92,1,4.83,4.83,0,0,1,.54,1,7.16,7.16,0,0,0,.45.87,27.67,27.67,0,0,0,2.76,3.71l.5.53.71-.7C146.71,83.08,146.55,82.93,146.4,82.76Z" transform="translate(0 0)"/>
  <path class="cls-2" d="M151.56,77.29a12.27,12.27,0,0,0-1.28-1.11,13.75,13.75,0,0,1-1.4-1.25,9.52,9.52,0,0,1-1-1.36,10.68,10.68,0,0,0-.95-1.36l-.84-1a34,34,0,0,1-3.42-4.41,10.15,10.15,0,0,0-2.12-2.22,13,13,0,0,1-1.17-1.06A3,3,0,0,1,139,63a4.3,4.3,0,0,0-.47-.65,2.44,2.44,0,0,0-.65-.51,1.94,1.94,0,0,1-.33-.23,15,15,0,0,1-2.79-5,6.75,6.75,0,0,1-.35-1.54c-.05-.3-.09-.6-.16-.91a6,6,0,0,0-.36-1,4.28,4.28,0,0,1-.32-.91c-.19-1,.9-2.48,1.42-3.18l.31-.41a11.51,11.51,0,0,1,1.62-1.93,5.47,5.47,0,0,1,.63-.44,4.68,4.68,0,0,0,1-.77,9,9,0,0,1,1-.85c1-.77,2.07-1.64,2.26-2.81.24-1.49-1.58-2.46-2.36-2.87l-.15-.08c-1.22-.65-1.65-1-1.29-1.82a5.25,5.25,0,0,1,.68-1.11c.16-.21.32-.43.49-.69a3.08,3.08,0,0,1,.72-.72,4.77,4.77,0,0,0,.77-.72,7.25,7.25,0,0,0,.5-.73,4,4,0,0,1,.72-.92,7.74,7.74,0,0,1,.73-.55,8.23,8.23,0,0,0,1-.76A46.49,46.49,0,0,1,151,25.48l.36-.22c.55-.35,1.14-.68,1.74-1a23.64,23.64,0,0,0,2.68-1.63c.95-.69,1.91-1.25,2.93-1.85.82-.48,1.66-1,2.49-1.53a17.24,17.24,0,0,1,2.14-1.2l-.74-.75a17,17,0,0,0-2,1.12c-.8.54-1.63,1-2.43,1.5a32.26,32.26,0,0,0-3,1.9,26.24,26.24,0,0,1-2.59,1.57l-1.78,1-.37.23a46.86,46.86,0,0,0-7.57,5.47,7.93,7.93,0,0,1-.86.67,9.53,9.53,0,0,0-.81.61,4.57,4.57,0,0,0-.91,1.14,5.58,5.58,0,0,1-.44.64,3.75,3.75,0,0,1-.62.57,4.41,4.41,0,0,0-.93,1c-.16.25-.31.45-.45.64a6.22,6.22,0,0,0-.84,1.37c-.76,1.78.69,2.54,1.74,3.09l.15.08c.54.29,2,1,1.84,1.83s-1.07,1.53-1.89,2.18a11.65,11.65,0,0,0-1.11,1,3.34,3.34,0,0,1-.79.61,7.67,7.67,0,0,0-.74.53,11.85,11.85,0,0,0-1.75,2.06l-.3.4c-.65.88-1.87,2.51-1.6,4a4.93,4.93,0,0,0,.38,1.12,6.74,6.74,0,0,1,.3.86c.06.29.11.57.15.85a7.43,7.43,0,0,0,.41,1.75,15.8,15.8,0,0,0,3,5.37,2.39,2.39,0,0,0,.52.38,1.46,1.46,0,0,1,.42.32,4.67,4.67,0,0,1,.36.51,3.65,3.65,0,0,0,.55.74c.39.41.83.77,1.24,1.13a8.89,8.89,0,0,1,1.92,2A35.92,35.92,0,0,0,145.31,72l.84,1a10.62,10.62,0,0,1,.87,1.24,10.56,10.56,0,0,0,1.08,1.5,11.45,11.45,0,0,0,1.51,1.36c.41.31.81.65,1.19,1,.22.22.41.44.61.66l.71-.71A1.71,1.71,0,0,0,151.56,77.29Z" transform="translate(0 0)"/>
  <path class="cls-2" d="M149.56,72.68A66.59,66.59,0,0,1,146,66.35a36.81,36.81,0,0,0-2.4-3.88l-.79-1.16-.61-1a21.49,21.49,0,0,0-2.35-3.19c-1.51-1.58-1.64-2.67-.47-3.9l.3-.32a16.34,16.34,0,0,1,2-1.9,11.78,11.78,0,0,1,1.35-.85,8.62,8.62,0,0,0,4.07-4.41,4.35,4.35,0,0,0,.38-3.42,6.13,6.13,0,0,0-1.95-3.17l-.15-.16a4,4,0,0,1-1-1.5c-.67-1.87-.52-3.28.47-4.18A31.87,31.87,0,0,1,152,28a38.56,38.56,0,0,1,5-1.88l1.58-.52a35.8,35.8,0,0,1,3.52-.94,27.91,27.91,0,0,0,4.83-1.43l1.08-.47-.76-.76-.71.32a29.42,29.42,0,0,1-4.67,1.38,35.3,35.3,0,0,0-3.62,1c-.51.18-1,.35-1.57.52a40.87,40.87,0,0,0-5.15,1.93,32.73,32.73,0,0,0-7.33,5.54c-.9.82-1.76,2.4-.73,5.26a5,5,0,0,0,1.17,1.85l.16.16a5.16,5.16,0,0,1,1.7,2.7,3.42,3.42,0,0,1-.33,2.81,8.64,8.64,0,0,1-1.92,2.75,8.82,8.82,0,0,1-1.73,1.18,13.87,13.87,0,0,0-1.46.93,19,19,0,0,0-2.11,2l-.29.32c-2.06,2.16-.72,4,.46,5.28a19.84,19.84,0,0,1,2.24,3c.2.32.41.65.62,1s.53.78.79,1.17a33.87,33.87,0,0,1,2.34,3.77,62.48,62.48,0,0,0,3.62,6.44,10.7,10.7,0,0,0,4.61,3.53l.75-.75A10.49,10.49,0,0,1,149.56,72.68Z" transform="translate(0 0)"/>
  <path class="cls-2" d="M153.42,70.16c-1-1.08-1.92-2.29-2.82-3.46-.64-.83-1.28-1.66-1.95-2.46A10,10,0,0,1,146.91,60c-.1-.41-.2-.82-.32-1.22-.5-1.81-.07-2.91,1.59-4.05l.66-.47a10.63,10.63,0,0,1,2-1.25,22,22,0,0,0,2.61-1.42l.43-.26c2.11-1.26,4.18-3.53,3-5.74-.88-1.68-2.57-2.68-4.2-3.65-.6-.36-1.17-.7-1.67-1.06-1.34-.95-1-1.92.15-3.73A17.85,17.85,0,0,1,157,31.75a20.21,20.21,0,0,1,6.1-2.35c.81-.2,1.61-.43,2.4-.66,1.24-.35,2.52-.72,3.8-1,1-.21,2-.48,2.93-.74l-.82-.81c-.77.2-1.54.41-2.32.57-1.31.29-2.61.66-3.86,1-.79.22-1.58.45-2.38.66a21.23,21.23,0,0,0-6.39,2.46,18.76,18.76,0,0,0-6.06,5.8c-.9,1.36-2.26,3.42.1,5.1.54.38,1.12.73,1.74,1.1,1.51.9,3.08,1.83,3.82,3.25,1.09,2.1-2.27,4.19-2.66,4.43l-.43.26a20,20,0,0,1-2.49,1.35,12,12,0,0,0-2.22,1.35l-.65.47c-2,1.38-2.6,2.91-2,5.14.11.39.21.79.31,1.19a11,11,0,0,0,2,4.62c.65.78,1.28,1.6,1.91,2.42.92,1.19,1.86,2.42,2.88,3.53a17.3,17.3,0,0,0,3.61,3l.73-.73A15.16,15.16,0,0,1,153.42,70.16Z" transform="translate(0 0)"/>
  <path class="cls-2" d="M160.12,69.22h0c-1.41-1.43-2.89-2.81-4.55-4.25a15.73,15.73,0,0,1-1.25-1.33l-.58-.66a1.73,1.73,0,0,1-.41-1.48V61a2.11,2.11,0,0,1,.41-1.63,7.58,7.58,0,0,1,1.44-1.21l.43-.3c.63-.47,1.33-.9,2-1.32a22.86,22.86,0,0,0,2.63-1.83,27.68,27.68,0,0,0,2.56-2.52c.4-.43.8-.86,1.21-1.28l.49-.46c.85-.8,1.83-1.71,1.54-3.28-.41-2.19-3.83-3.9-4.52-4.22l-.58-.26c-1-.45-2.46-1.07-2.75-2a4.75,4.75,0,0,1,1-3.52,5.91,5.91,0,0,1,3.41-1.89l1-.32a19.11,19.11,0,0,1,4.68-.85,7.92,7.92,0,0,0,1.66-.42,8.31,8.31,0,0,1,1.11-.32c.62-.12,1.22-.26,1.83-.4l1-.22.46-.1c1-.2,1.93-.41,2.91-.64l-.84-.84c-.76.18-1.53.34-2.28.5l-.46.1-1,.23c-.6.13-1.19.27-1.8.39a10.89,10.89,0,0,0-1.24.35,6.4,6.4,0,0,1-1.43.37,20.44,20.44,0,0,0-4.91.9l-1,.31a6.79,6.79,0,0,0-3.93,2.26c-.84,1.17-1.55,3.05-1.12,4.41s2.08,2.06,3.3,2.59l.56.25c1.74.82,3.73,2.26,4,3.49.18,1-.35,1.54-1.24,2.37l-.51.49c-.42.42-.83.86-1.24,1.3a25.54,25.54,0,0,1-2.45,2.43A24.3,24.3,0,0,1,157,55.62c-.69.43-1.4.87-2.07,1.36l-.41.3a7.81,7.81,0,0,0-1.58,1.4,3,3,0,0,0-.65,2.28v.5a2.68,2.68,0,0,0,.68,2.18l.56.64a12.76,12.76,0,0,0,1.35,1.4c1.63,1.42,3.1,2.81,4.49,4.2.14.15.3.27.45.41l.7-.71C160.39,69.46,160.24,69.35,160.12,69.22Z" transform="translate(0 0)"/>
  <path class="cls-2" d="M163.07,66.74a4.29,4.29,0,0,1-1.35-5.86A13.28,13.28,0,0,1,166,56.79,28.17,28.17,0,0,0,168.32,55c.44-.38.92-.73,1.39-1.07s1-.77,1.54-1.2a5.7,5.7,0,0,0,.88-1.08,6.65,6.65,0,0,1,.61-.79c.86-.91,1.67-1.78,1.53-3.3-.17-2-1.46-2.61-2.7-3.25-.26-.13-.52-.26-.78-.41a10.17,10.17,0,0,0-2.32-.88,11.12,11.12,0,0,1-1.68-.58c-.53-.24-.8-.53-.81-.86,0-.86,1.46-2.1,2.48-2.62a17.59,17.59,0,0,1,3.6-1.23l.71-.18c.29-.08.58-.19.88-.29a6.47,6.47,0,0,1,1.37-.38h.69a6.22,6.22,0,0,0,1.36-.14c1.34-.31,2.68-.6,4-.88h0l-.84-.84c-1.14.25-2.29.49-3.43.76a5.79,5.79,0,0,1-1.17.11h-.75a6.46,6.46,0,0,0-1.62.43c-.27.09-.54.19-.8.26l-.7.19a17.59,17.59,0,0,0-3.8,1.3c-.86.43-3.06,1.92-3,3.53a2,2,0,0,0,1.39,1.75,11.63,11.63,0,0,0,1.83.63,8.65,8.65,0,0,1,2.09.79l.82.43c1.19.61,2,1,2.17,2.45.09,1.08-.48,1.68-1.31,2.58a5.46,5.46,0,0,0-.66.86,4.81,4.81,0,0,1-.73.89c-.45.4-.94.76-1.46,1.14s-1,.72-1.45,1.12c-.72.6-1.47,1.17-2.25,1.7a14.19,14.19,0,0,0-4.57,4.42,5.28,5.28,0,0,0,1.62,7.14h.06l.72-.72Z" transform="translate(0 0)"/>
  <path class="cls-2" d="M169.66,59.68a8.63,8.63,0,0,1,.71-.77,7.35,7.35,0,0,0,.93-1,6.21,6.21,0,0,1,1.06-1.23,29.13,29.13,0,0,1,2.78-1.91l.57-.36,5.69-5.73a5,5,0,0,0,.25-.74c.62-2.63-1.75-3.81-3.48-4.67l-.28-.14c-.16-.08-.42-.18-.71-.3a5.11,5.11,0,0,1-1.48-.73c-.09-.13,0-.49,1.15-1.33a7.25,7.25,0,0,1,4.25-.93,14.44,14.44,0,0,0,2.78-.24,5.6,5.6,0,0,1,1-.06l-1-.94h-.22a14,14,0,0,1-2.58.21,8.17,8.17,0,0,0-4.83,1.13c-.58.4-2.12,1.48-1.41,2.65a4,4,0,0,0,2,1.15c.21.07.42.16.62.25l.28.14c2,1,3.36,1.83,2.95,3.55a5.47,5.47,0,0,1-1.63,2.7l-.54.49a22.65,22.65,0,0,1-2.79,2.29l-1.1.7a30.16,30.16,0,0,0-2.88,2,6.73,6.73,0,0,0-1.24,1.42,7.18,7.18,0,0,1-.82.92,8.15,8.15,0,0,0-.8.86,4.91,4.91,0,0,0-1,3.11L169,61.09A3.52,3.52,0,0,1,169.66,59.68Z" transform="translate(0 0)"/>
  <path class="cls-2" d="M184.11,42.91l.07-.06c.24-.05.49-.07.75-.1a5.1,5.1,0,0,0,1.22-.2h.13a7,7,0,0,0,1.07-.42l-.75-.76c-.19.08-.39.15-.63.23h-.13a4.85,4.85,0,0,1-1,.16,5.62,5.62,0,0,0-1.15.18.53.53,0,0,0-.23.16,9.26,9.26,0,0,1-1.18.13.51.51,0,0,0-.47.49.49.49,0,0,0,.44.51,3.64,3.64,0,0,1,2.61,2l.73-.73A4.69,4.69,0,0,0,184.11,42.91Z" transform="translate(0 0)"/>
</svg>
