<svg id="Layer_1" data-name="Layer 1" xmlns="http://www.w3.org/2000/svg" viewBox="0 0 512 384">
  <defs>
    <style>
      .cls-1 {
        fill: #ff2b06;
      }
    </style>
  </defs>
  <g>
    <path class="cls-1" d="M10.69,95.16C81,154.67,204.26,259.36,240.5,292c4.87,4.41,10.08,6.65,15.5,6.65s10.61-2.22,15.47-6.61C307.74,259.37,431,154.67,501.31,95.16a10.66,10.66,0,0,0,1.5-14.72A42.35,42.35,0,0,0,469.33,64H42.67A42.35,42.35,0,0,0,9.19,80.44,10.66,10.66,0,0,0,10.69,95.16Z" transform="translate(0 -64)"/>
    <path class="cls-1" d="M505.81,127.41A10.6,10.6,0,0,0,494.44,129c-46,39-106.66,90.55-152.39,129.88a10.66,10.66,0,0,0,.29,16.41c42.49,34,106.53,80.84,152.76,114.11A10.66,10.66,0,0,0,512,380.7V137.08A10.66,10.66,0,0,0,505.81,127.41Z" transform="translate(0 -64)"/>
    <path class="cls-1" d="M16.9,389.35c46.25-33.27,110.29-80.08,152.77-114.11a10.66,10.66,0,0,0,.29-16.41C124.23,219.5,63.58,168,17.56,129A10.67,10.67,0,0,0,0,137.08V380.7a10.67,10.67,0,0,0,16.9,8.65Z" transform="translate(0 -64)"/>
    <path class="cls-1" d="M498.93,418.37C454.27,386.43,372,326.86,322.91,287a10.69,10.69,0,0,0-13.73.24c-9.64,8.41-17.7,15.49-23.42,20.64-17.56,15.85-41.94,15.85-59.54,0-5.7-5.13-13.76-12.24-23.4-20.61A10.62,10.62,0,0,0,189.1,287c-48.93,39.72-131.29,99.35-176,131.36A10.72,10.72,0,0,0,8.68,426a10.61,10.61,0,0,0,2.8,8.33A42.73,42.73,0,0,0,42.67,448H469.33a42.79,42.79,0,0,0,31.2-13.69,10.68,10.68,0,0,0-1.6-15.94Z" transform="translate(0 -64)"/>
  </g>
</svg>
