<svg id="Layer_1" data-name="Layer 1" xmlns="http://www.w3.org/2000/svg" viewBox="0 0 388.2 512">
  <defs>
    <style>
      .cls-1 {
        fill: #ff2b06;
      }
    </style>
  </defs>
  <g>
    <path class="cls-1" d="M321.36,63.8A145.48,145.48,0,0,0,152.55,90.87c-51.9,51.89-57.09,134.64-12.09,192.47a8.07,8.07,0,1,0,12.74-9.91c-40-51.42-35.39-125,10.76-171.15A129.37,129.37,0,0,1,314.08,78.2a8.07,8.07,0,1,0,7.28-14.4Z" transform="translate(-61.9 0)"/>
    <path class="cls-1" d="M385.79,128.24a8.07,8.07,0,1,0-14.41,7.27,129.39,129.39,0,0,1-24.09,150.1c-46.16,46.15-119.74,50.77-171.16,10.76a8.07,8.07,0,1,0-9.91,12.73A145.81,145.81,0,0,0,385.79,128.24Z" transform="translate(-61.9 0)"/>
    <path class="cls-1" d="M364.94,97.51c-2-2.26-4.1-4.5-6.24-6.64s-4.38-4.24-6.64-6.24a8.07,8.07,0,0,0-10.69,12.09c2,1.78,4,3.65,5.92,5.56s3.78,3.9,5.56,5.91a8.07,8.07,0,1,0,12.09-10.68Z" transform="translate(-61.9 0)"/>
    <path class="cls-1" d="M446.07,208.41a27.37,27.37,0,0,0,0-28.62l-10.61-17.4a11.34,11.34,0,0,1-1.52-7.67l3.16-20.11a27.33,27.33,0,0,0-11-26.49l-16.45-12a11.3,11.3,0,0,1-4.35-6.51l-4.8-19.8A27.36,27.36,0,0,0,380.27,49.6l-19.8-4.8A11.34,11.34,0,0,1,354,40.45L342,24A27.37,27.37,0,0,0,315.5,13l-20.11,3.17a11.39,11.39,0,0,1-7.67-1.53L270.31,4a27.35,27.35,0,0,0-28.62,0L224.28,14.65a11.32,11.32,0,0,1-7.67,1.52L196.51,13A27.37,27.37,0,0,0,170,24l-12,16.45a11.42,11.42,0,0,1-6.51,4.36l-19.8,4.79a27.39,27.39,0,0,0-20.25,20.24l-4.79,19.8a11.34,11.34,0,0,1-4.35,6.51l-16.46,12a27.35,27.35,0,0,0-11,26.49l3.16,20.11a11.32,11.32,0,0,1-1.52,7.67L65.93,179.79a27.39,27.39,0,0,0,0,28.62l10.62,17.41a11.33,11.33,0,0,1,1.52,7.67l-3.16,20.1a27.34,27.34,0,0,0,11,26.5l16.45,12a11.35,11.35,0,0,1,4.35,6.5l4.79,19.8a27.39,27.39,0,0,0,20.25,20.25l8.27,2L84,465.42a8.08,8.08,0,0,0,8.32,11.32l45-5.39,25.93,37.19a8.08,8.08,0,0,0,6.62,3.46,6.56,6.56,0,0,0,.76,0,8,8,0,0,0,6.6-4.73l57.15-127.48,7.24,4.42a27.42,27.42,0,0,0,28.62,0l7.5-4.58L335,507.23a8,8,0,0,0,6.6,4.73,6.56,6.56,0,0,0,.76,0,8.09,8.09,0,0,0,6.62-3.45l25.93-37.2,45,5.39a8.06,8.06,0,0,0,8.32-11.31l-56-124.89,8-1.92a27.39,27.39,0,0,0,20.25-20.25l4.79-19.8a11.41,11.41,0,0,1,4.35-6.51l16.46-12a27.38,27.38,0,0,0,11-26.5l-3.16-20.11a11.33,11.33,0,0,1,1.52-7.67ZM168.41,487.63l-20.56-29.48a8,8,0,0,0-7.57-3.39L104.6,459l51-113.72a11.43,11.43,0,0,1,2.46,2.45l12,16.46a28.1,28.1,0,0,0,3.81,4.24L147,428.31a8.07,8.07,0,1,0,14.72,6.6l26.74-59.64a27.59,27.59,0,0,0,8.06-.08L216.61,372a11.5,11.5,0,0,1,3.61,0ZM407.73,459l-35.68-4.26a8,8,0,0,0-7.57,3.39l-20.56,29.48L292.09,372a11.41,11.41,0,0,1,3.3,0l20.1,3.17a27.7,27.7,0,0,0,8.38,0l26.76,59.69a8.07,8.07,0,0,0,14.72-6.6l-26.93-60.08a28.64,28.64,0,0,0,3.57-4l12-16.45a11.36,11.36,0,0,1,2.72-2.64Zm24.56-259-10.62,17.41A27.44,27.44,0,0,0,418,236l3.16,20.11A11.27,11.27,0,0,1,416.62,267l-16.46,12a27.57,27.57,0,0,0-10.55,15.76l-4.79,19.8a11.28,11.28,0,0,1-8.36,8.36l-19.8,4.79a27.54,27.54,0,0,0-15.76,10.55l-12,16.45A11.29,11.29,0,0,1,318,359.25l-20.11-3.16a27.57,27.57,0,0,0-18.58,3.68L261.9,370.39a11.3,11.3,0,0,1-11.81,0l-17.41-10.62a27.5,27.5,0,0,0-14.31-4,27.91,27.91,0,0,0-4.27.33L194,359.25a11.29,11.29,0,0,1-10.94-4.53l-12-16.46a27.56,27.56,0,0,0-15.76-10.54l-19.8-4.79a11.29,11.29,0,0,1-8.36-8.36l-4.79-19.8A27.54,27.54,0,0,0,111.83,279L95.38,267a11.29,11.29,0,0,1-4.53-10.94L94,236a27.55,27.55,0,0,0-3.68-18.58L79.71,200a11.32,11.32,0,0,1,0-11.82l10.62-17.41A27.53,27.53,0,0,0,94,152.21L90.85,132.1a11.29,11.29,0,0,1,4.53-10.94l16.46-12a27.48,27.48,0,0,0,10.54-15.76l4.8-19.8a11.28,11.28,0,0,1,8.35-8.36l19.8-4.79A27.52,27.52,0,0,0,171.1,49.93l12-16.45A11.29,11.29,0,0,1,194,29l20.1,3.16a27.59,27.59,0,0,0,18.59-3.68l17.4-10.62a11.3,11.3,0,0,1,11.81,0l17.42,10.62a27.42,27.42,0,0,0,18.57,3.68L318,29a11.3,11.3,0,0,1,10.93,4.53l12,16.46a27.48,27.48,0,0,0,15.76,10.54l19.8,4.8a11.28,11.28,0,0,1,8.36,8.35l4.79,19.8a27.52,27.52,0,0,0,10.55,15.77l16.45,12a11.29,11.29,0,0,1,4.53,10.94L418,152.21a27.51,27.51,0,0,0,3.68,18.58l10.62,17.4A11.32,11.32,0,0,1,432.29,200Z" transform="translate(-61.9 0)"/>
    <path class="cls-1" d="M350.42,169a14.45,14.45,0,0,0-12.15-10l-48.55-5.75-20.48-44.4a14.58,14.58,0,0,0-26.48,0l-20.48,44.4L173.73,159a14.58,14.58,0,0,0-8.18,25.18l35.89,33.2-9.53,48A14.64,14.64,0,0,0,206.2,282.8a14.63,14.63,0,0,0,7.14-1.88L256,257l42.66,23.88a14.58,14.58,0,0,0,21.42-15.57l-9.53-48,35.9-33.19A14.47,14.47,0,0,0,350.42,169Zm-54.14,39.62a8.05,8.05,0,0,0-2.43,7.5l9.75,49.07-43.66-24.44a8.13,8.13,0,0,0-3.94-1,8,8,0,0,0-3.94,1L208.4,265.19l9.75-49.07a8.07,8.07,0,0,0-2.44-7.5l-36.73-34,49.69-5.89a8.07,8.07,0,0,0,6.37-4.63l21-45.43L277,164.13a8.09,8.09,0,0,0,6.38,4.63L333,174.65Z" transform="translate(-61.9 0)"/>
  </g>
</svg>
