<svg id="Capa_1" data-name="Capa 1" xmlns="http://www.w3.org/2000/svg" viewBox="0 0 512 512">
  <defs>
    <style>
      .cls-1 {
        fill: #ff2b06;
      }
    </style>
  </defs>
  <path class="cls-1" d="M510.88,500.54,364.6,263.15a27.55,27.55,0,0,0-46.91,0l-10.08,16.36L246,179.44a27.38,27.38,0,0,0-16-12.08V105.91h30.11a7.52,7.52,0,0,0,0-15H230V30.64h94.66L310.31,57.19a7.48,7.48,0,0,0,0,7.14l14.33,26.55H290.15a7.52,7.52,0,1,0,0,15h47.09a7.52,7.52,0,0,0,6.61-11.08L325.46,60.76,343.85,26.7a7.52,7.52,0,0,0-6.61-11.09H230V7.51a7.52,7.52,0,0,0-15,0V167.36a27.43,27.43,0,0,0-16,12.08L58.57,407.3a7.52,7.52,0,1,0,12.8,7.88l90.46-146.8,24.69,28.85a7.52,7.52,0,0,0,11.22.23l24.72-26.66,24.72,26.66a7.52,7.52,0,0,0,5.51,2.4h.15a7.54,7.54,0,0,0,5.56-2.62l24.7-28.86,43.66,70.85a7.51,7.51,0,1,0,12.79-7.88l-23.11-37.51L330.49,271a12.52,12.52,0,0,1,21.32,0L491,497H441.6l-86.29-140a7.51,7.51,0,1,0-12.79,7.88L424,497H21l34.62-56.18a7.52,7.52,0,1,0-12.8-7.88L1.12,500.54A7.52,7.52,0,0,0,7.52,512h497a7.52,7.52,0,0,0,6.4-11.46ZM252.47,281.05,228,254.63a7.53,7.53,0,0,0-11,0l-24.49,26.42-22.35-26.11,41.66-67.61a12.54,12.54,0,0,1,21.38,0l41.67,67.61Z" transform="translate(0 0)"/>
</svg>
