<svg id="Layer_1" data-name="Layer 1" xmlns="http://www.w3.org/2000/svg" viewBox="0 0 512 470.29">
  <defs>
    <style>
      .cls-1 {
        fill: #ff2b06;
      }
    </style>
  </defs>
  <g>
    <path class="cls-1" d="M510.64,355c-18-53.32-9.45-105-8.79-108.71a185.86,185.86,0,0,0,4.51-41.38c-.29-80.56-51.81-151-128.21-175.26A7.5,7.5,0,1,0,373.61,44c70.17,22.28,117.49,87,117.75,161a170.37,170.37,0,0,1-4.18,38.18c0,.11-.05.22-.07.33-.42,2.36-10.22,58.52,9.32,116.32A10.43,10.43,0,0,1,494.55,370a10.75,10.75,0,0,1-9.82,3.83c-15.83-2.16-29.52-6.3-40.69-12.3-16-8.62-35-9.36-50.88-2a169.64,169.64,0,0,1-193-272.13A168.54,168.54,0,0,1,318.37,36a174.22,174.22,0,0,1,26.28,1.48,7.5,7.5,0,0,0,2-14.87A188.6,188.6,0,0,0,318.08,21,185.06,185.06,0,0,0,155.4,125.35,184.84,184.84,0,0,0,10.15,347.42c.66,3.74,9.24,55.37-8.79,108.71a25.45,25.45,0,0,0,4.53,24.49,25.68,25.68,0,0,0,23.4,9.15c17.62-2.41,33-7.1,45.78-14,11.88-6.39,25.88-7,37.45-1.61,24.45,11.37,55.26,17.09,81.13,17.09,29.12,0,58-8.1,83.68-21.91a187.46,187.46,0,0,0,63.07-55.56,7.5,7.5,0,1,0-12.19-8.73,172.32,172.32,0,0,1-58,51.08,169.24,169.24,0,0,1-151.37,4.43C103,453.23,84,454,68,462.6c-11.17,6-24.86,10.15-40.7,12.3a10.78,10.78,0,0,1-9.82-3.83,10.43,10.43,0,0,1-1.88-10.14c19.49-57.65,9.81-113.63,9.32-116.3,0-.12,0-.24-.07-.35a169.23,169.23,0,0,1,123.43-202,184.47,184.47,0,0,0,42.58,193.2c34.13,34.41,79.42,54.71,127.52,54.71,29.81,0,56.68-5.72,81.13-17.09,11.58-5.38,25.58-4.78,37.45,1.6,12.76,6.87,28.16,11.56,45.78,14A25.71,25.71,0,0,0,510.64,355Z" transform="translate(0 -21)"/>
    <path class="cls-1" d="M268.05,149.16H244.43a28,28,0,0,0-28,28v28.26a28,28,0,0,0,28,28h0c.21,0,12,.1,17.38,11.1a55.1,55.1,0,0,1,5.26,17.94c.95,8,5.8,16.39,18.53,16.39a18.33,18.33,0,0,0,15.86-9.15c10.18-17.23,19.89-46.61,8.3-88.77A43.35,43.35,0,0,0,268.05,149.16ZM288.59,262a3.42,3.42,0,0,1-3.81,1.69,3.32,3.32,0,0,1-2.76-3,70.39,70.39,0,0,0-6.69-22.8c-9.41-19.18-29.61-19.5-30.87-19.5h0a13,13,0,0,1-13-13V177.12a13,13,0,0,1,13-13h23.62a28.32,28.32,0,0,1,27.3,20.66C303.53,214.6,301.26,240.56,288.59,262Z" transform="translate(0 -21)"/>
    <path class="cls-1" d="M328.39,177.12v28.26a28,28,0,0,0,27.94,28c.49,0,12.14.27,17.45,11.1A55.1,55.1,0,0,1,379,262.38c.94,8,6.49,16.39,18.53,16.39a18.3,18.3,0,0,0,15.86-9.15c10.18-17.23,19.89-46.61,8.3-88.77A43.36,43.36,0,0,0,380,149.16H356.35A28,28,0,0,0,328.39,177.12Zm15,0a13,13,0,0,1,13-13H380a28.32,28.32,0,0,1,27.29,20.67c8.18,29.77,5.91,55.73-6.75,77.15a3.44,3.44,0,0,1-3.82,1.69,3.32,3.32,0,0,1-2.76-3,70.32,70.32,0,0,0-6.69-22.8c-9.41-19.18-29.61-19.5-30.86-19.5h0a13,13,0,0,1-13-13Z" transform="translate(0 -21)"/>
  </g>
</svg>
