<svg id="Layer_1" data-name="Layer 1" xmlns="http://www.w3.org/2000/svg" viewBox="0 0 512 384">
  <defs>
    <style>
      .cls-1 {
        fill: #ff2b06;
      }
    </style>
  </defs>
  <path class="cls-1" d="M511.56,434.26C509.83,291.93,387.14,176,234.48,170.84V96a32,32,0,0,0-32-32A31.57,31.57,0,0,0,181,72.56S46.15,197.39,7.37,236.32C2.62,241.11,0,248.09,0,256s2.62,14.89,7.37,19.69C46.15,314.6,181,439.43,181,439.43A31.57,31.57,0,0,0,202.5,448a32,32,0,0,0,32-32V341.4C388,343.55,490.27,392,490.27,437.32A10.66,10.66,0,0,0,500.93,448a1.83,1.83,0,0,0,.41,0,10.69,10.69,0,0,0,10.22-13.73Z" transform="translate(0 -64)"/>
</svg>
