<svg id="Layer_1" data-name="Layer 1" xmlns="http://www.w3.org/2000/svg" viewBox="0 0 166.91 167.21">
  <defs>
    <style>
      .cls-1 {
        fill: #ff2b06;
      }
    </style>
  </defs>
  <g>
    <path class="cls-1" d="M49.7,20.7a1.56,1.56,0,0,0,2.2.4c1-.5,1.1-1.1.7-1.7-.4-.8-1.1-.8-2.5-.5-2.2.5-3.3.2-4-1-.9-1.6-.1-3.1,1.5-4,2-1.1,3.4-.5,4.3.8l-1.7.9a1.28,1.28,0,0,0-1.9-.4,1.09,1.09,0,0,0-.6,1.6c.3.6.9.6,2.2.3,2.5-.6,3.5,0,4.2,1.2.8,1.4.5,3-1.7,4.3-1.8,1-3.5.8-4.6-.9Z" transform="translate(-4.9 -3.49)"/>
    <path class="cls-1" d="M67.9,12.8A3.56,3.56,0,0,1,65.3,17c-2.9,1-4.6-.8-5.5-3.4s-.2-5.1,2.4-6,3.9.4,4.5,1.8l-1.8.6a1.66,1.66,0,0,0-2.2-.9c-1.5.5-1.5,2.2-1,3.8s1.5,3.1,3.1,2.5A1.75,1.75,0,0,0,66,13.3Z" transform="translate(-4.9 -3.49)"/>
    <path class="cls-1" d="M76.8,10l.5,3.9-1.9.2L74.2,4.6l3.9-.5c1.8-.2,3.2.5,3.4,2.2a2.08,2.08,0,0,1-1.2,2.4c1,.2,1.4.9,1.6,2.1V11c.1.8.3,1.6.4,2.2l-1.9.2a9,9,0,0,1-.5-2.2v-.3c-.1-1.1-.6-1.4-1.8-1.3Zm-.2-1.5L78,8.3c.9-.1,1.6-.5,1.5-1.5s-.8-1.1-1.6-1L76.3,6Z" transform="translate(-4.9 -3.49)"/>
    <path class="cls-1" d="M97.7,8.7c-.2,2.8-1.6,4.9-4.7,4.7s-4.1-2.5-3.9-5.3c.1-2.4,1.6-4.8,4.7-4.6C96.6,3.8,97.8,6.2,97.7,8.7Zm-6.6-.4c-.1,1.9.5,3.5,2.1,3.6s2.4-1.3,2.5-3.3c.1-1.8-.4-3.4-2.1-3.5S91.2,6.5,91.1,8.3Z" transform="translate(-4.9 -3.49)"/>
    <path class="cls-1" d="M106.4,5.5l1.9.5-2,7.7,4.2,1.1-.6,1.5-5.8-1.5Z" transform="translate(-4.9 -3.49)"/>
    <path class="cls-1" d="M120,9.7l1.8.8-3.3,7.3,3.9,1.7-.8,1.4-5.5-2.5Z" transform="translate(-4.9 -3.49)"/>
    <path class="cls-1" d="M140.9,24.2l-2-1.7,1.1-1.2,5.4,4.7-1.1,1.2-2-1.7-5.2,6.1-1.5-1.3Z" transform="translate(-4.9 -3.49)"/>
    <path class="cls-1" d="M152.6,41.2c-2.2,1.7-4.7,2.1-6.6-.3s-.9-4.7,1.3-6.4c1.8-1.5,4.6-2,6.5.4C155.5,37.1,154.6,39.6,152.6,41.2Zm-4.1-5.1c-1.5,1.2-2.2,2.7-1.3,3.9s2.5.9,4.1-.4c1.4-1.1,2.2-2.5,1.1-3.9C151.5,34.5,149.9,34.9,148.5,36.1Z" transform="translate(-4.9 -3.49)"/>
    <path class="cls-1" d="M160.9,45.5l1.6,3.1c.8,1.6.8,3.4-1,4.3s-3.4.1-4.3-1.7l-.7-1.2-3.3,1.7-.9-1.7ZM158,49.2l.6,1.1c.5.9,1.1,1.3,2.1.8.8-.4.9-1.2.4-2.1l-.6-1.2Z" transform="translate(-4.9 -3.49)"/>
    <path class="cls-1" d="M165.5,72.8l-1.6.3-.7-3.6,1.6-.3Z" transform="translate(-4.9 -3.49)"/>
    <path class="cls-1" d="M165.1,90.7a1.64,1.64,0,0,0-1.6,1.6c-.1,1.1.4,1.5,1.1,1.5.9.1,1.3-.4,1.7-1.8.8-2.2,1.6-2.9,3-2.8,1.8.1,2.6,1.6,2.5,3.4-.2,2.3-1.4,3.2-3,3.2l.1-1.9a1.29,1.29,0,0,0,1.3-1.4c.1-.9-.3-1.3-1-1.4s-.9.4-1.4,1.7c-.9,2.4-1.9,3-3.3,2.9-1.6-.1-2.8-1.2-2.7-3.7.1-2.1,1.3-3.4,3.2-3.4Z" transform="translate(-4.9 -3.49)"/>
    <path class="cls-1" d="M162,110.3a3.6,3.6,0,0,1-2.1-4.5c.8-2.9,3.2-3.4,5.8-2.7s4.4,2.6,3.7,5.3a3.32,3.32,0,0,1-4,2.8l.5-1.8a1.76,1.76,0,0,0,2-1.4c.4-1.5-1-2.5-2.7-2.9s-3.4-.4-3.8,1.2a1.84,1.84,0,0,0,1.1,2.2Z" transform="translate(-4.9 -3.49)"/>
    <path class="cls-1" d="M159.5,119.3l-3.6-1.7.8-1.7,8.7,4.1-1.7,3.5c-.8,1.6-2.1,2.4-3.7,1.7a2.19,2.19,0,0,1-1.4-2.3,2.08,2.08,0,0,1-2.6.2l-.2-.1a9.12,9.12,0,0,0-2-.8l.8-1.7a7.17,7.17,0,0,1,2.1.8l.2.1c1,.5,1.5.3,2-.9Zm1.4.6-.6,1.3c-.4.8-.5,1.6.5,2.1.8.4,1.4-.1,1.7-.8l.7-1.6Z" transform="translate(-4.9 -3.49)"/>
    <path class="cls-1" d="M149.2,137.5c-2.2-1.6-3.2-4-1.4-6.5s4.3-2,6.5-.4c1.9,1.4,3.1,3.9,1.3,6.4C153.9,139.3,151.3,139,149.2,137.5Zm3.9-5.3c-1.5-1.1-3.2-1.4-4.1-.2s-.2,2.7,1.4,3.9c1.4,1.1,3,1.5,4,.1S154.6,133.3,153.1,132.2Z" transform="translate(-4.9 -3.49)"/>
    <path class="cls-1" d="M147.2,146.6l-1.4,1.3-5.4-5.9-3.1,2.9-.9-1.3,4.4-4.1Z" transform="translate(-4.9 -3.49)"/>
    <path class="cls-1" d="M136.4,155.7l-1.6,1.1-4.4-6.7-3.6,2.3L126,151l5-3.3Z" transform="translate(-4.9 -3.49)"/>
    <path class="cls-1" d="M112.8,165.5l2.5-.7.5,1.5-6.9,2-.5-1.5,2.5-.7-2.3-7.6,1.9-.6Z" transform="translate(-4.9 -3.49)"/>
    <path class="cls-1" d="M92.2,166c-.3-2.7.8-5.1,3.8-5.4s4.4,1.8,4.7,4.6c.2,2.4-.8,5-3.8,5.3S92.5,168.6,92.2,166Zm6.5-.6c-.2-1.9-1.1-3.3-2.6-3.2-1.7.2-2.1,1.6-1.9,3.6.2,1.8.9,3.2,2.6,3.1S98.9,167.2,98.7,165.4Z" transform="translate(-4.9 -3.49)"/>
    <path class="cls-1" d="M84.1,170.7l-3.5-.3c-1.8-.2-3.3-1.2-3.1-3.2s1.7-2.9,3.8-2.7l1.4.1L83,161l2,.2Zm-1.6-4.5-1.3-.1c-1-.1-1.7.2-1.8,1.3s.5,1.4,1.5,1.5l1.3.1Z" transform="translate(-4.9 -3.49)"/>
    <path class="cls-1" d="M58.6,159.8l.6-1.5,3.4,1.3-.6,1.5Z" transform="translate(-4.9 -3.49)"/>
    <path class="cls-1" d="M43.8,149.8a1.62,1.62,0,0,0-.5-2.2c-.9-.7-1.5-.5-1.9,0-.5.7-.3,1.3.6,2.4,1.4,1.8,1.5,2.9.7,4a2.82,2.82,0,0,1-4.2.3c-1.8-1.4-1.9-2.9-1.1-4.2l1.5,1.1a1.36,1.36,0,0,0,.4,1.9A1.13,1.13,0,0,0,41,153c.4-.6.2-1-.7-2.2-1.5-2-1.5-3.2-.6-4.3.9-1.3,2.6-1.7,4.6-.2,1.7,1.3,2.1,2.9,1.1,4.5Z" transform="translate(-4.9 -3.49)"/>
    <path class="cls-1" d="M29,136.4a3.48,3.48,0,0,1,4.9.7c2,2.2,1.2,4.5-.8,6.4s-4.6,2.3-6.5.3a3.26,3.26,0,0,1-.2-4.8l1.3,1.4a1.72,1.72,0,0,0,.1,2.4c1.1,1.2,2.6.5,3.9-.7s2.2-2.7,1-3.9a1.88,1.88,0,0,0-2.4-.3Z" transform="translate(-4.9 -3.49)"/>
    <path class="cls-1" d="M22.9,129.5l3.4-2.1,1,1.6-8.1,5.1-2.1-3.3c-1-1.5-.9-3.1.6-4a2.22,2.22,0,0,1,2.7.1c-.2-1,.3-1.7,1.3-2.3l.2-.1a9.33,9.33,0,0,0,1.8-1.3l1,1.6a9.28,9.28,0,0,1-1.8,1.3l-.2.1c-.9.6-1,1.1-.4,2.2Zm-1.3.8-.8-1.2c-.5-.8-1.1-1.3-2-.7s-.7,1.2-.3,1.9l.9,1.5Z" transform="translate(-4.9 -3.49)"/>
    <path class="cls-1" d="M13.1,111c2.6-1,5.1-.5,6.2,2.3s-.6,4.8-3.2,5.7c-2.2.8-5,.5-6.1-2.4C9,114,10.7,111.9,13.1,111Zm2.3,6.2c1.8-.7,2.9-1.9,2.4-3.3-.6-1.6-2.1-1.6-4-.9-1.7.6-2.9,1.7-2.3,3.3C12.1,117.7,13.7,117.8,15.4,117.2Z" transform="translate(-4.9 -3.49)"/>
    <path class="cls-1" d="M6.5,104.4l-.3-1.9,7.9-1.4-.7-4.2,1.6-.1,1.1,5.9Z" transform="translate(-4.9 -3.49)"/>
    <path class="cls-1" d="M6.8,78.9l-.3,2.6-1.6-.2.8-7.1,1.6.2L7,76.9l7.9.9-.2,2Z" transform="translate(-4.9 -3.49)"/>
    <path class="cls-1" d="M14.3,59.7c2.6.8,4.4,2.7,3.5,5.6s-3.4,3.4-6,2.6c-2.3-.7-4.3-2.7-3.4-5.6C9.2,59.6,11.8,59,14.3,59.7ZM12.4,66c1.8.6,3.5.3,4-1.2s-.7-2.6-2.6-3.2c-1.7-.5-3.4-.4-3.9,1.2S10.6,65.5,12.4,66Z" transform="translate(-4.9 -3.49)"/>
    <path class="cls-1" d="M13.2,50.4l1.7-3.1c.9-1.6,2.4-2.5,4.1-1.6s2,2.7,1,4.6l-.7,1.2,3.3,1.8-1,1.7Zm4.8.4.6-1.1c.5-.9.5-1.7-.5-2.2-.8-.5-1.5-.1-2,.8l-.6,1.2Z" transform="translate(-4.9 -3.49)"/>
    <path class="cls-1" d="M33.3,31.3l1.1,1.1L31.9,35l-1.1-1.1Z" transform="translate(-4.9 -3.49)"/>
  </g>
</svg>
