<svg id="Layer_1" data-name="Layer 1" xmlns="http://www.w3.org/2000/svg" viewBox="0 0 173.11 172.9">
  <defs>
    <style>
      .cls-1 {
        fill: #ff2b06;
        fill-rule: evenodd;
      }
    </style>
  </defs>
  <g id="Desktop">
    <g id="Wise-Stone---Open">
      <g id="Scroll">
        <path id="Scroll-Down-_-Scroll" data-name="Scroll-Down-—-Scroll" class="cls-1" d="M89.36,3c.22-2.35,2.87-3.11,5-2.91,2.27.21,4.22,1.42,4.51,3.66l-2.71.14A2.21,2.21,0,0,0,94,2.35c-1-.09-1.78.14-1.83.75s.42,1,1.19,1.24l1.53.49c1.73.54,4,1.35,3.79,3.67-.24,2.48-2.84,3.44-5,3.23-3-.28-4.7-1.81-5-4.14l2.71-.14a2.46,2.46,0,0,0,2.51,2c.93.08,1.92-.1,2-.89S95,7.38,93.88,7L92.52,6.6C90.78,6.05,89.16,5.06,89.36,3Zm19.5,7.15,2.46,1.06c-1,2.31-3.53,3.34-6.33,2.6-3.45-.91-5-3.59-4-7.12s3.66-5.06,7.11-4.15a5,5,0,0,1,4.06,5.35l-2.67-.3a2.6,2.6,0,0,0-2.07-2.87c-1.55-.41-3.07.43-3.67,2.7s.3,3.77,1.85,4.18A2.64,2.64,0,0,0,108.86,10.13Zm9.36,8.22-.56-4.78-1.56-.69-1.67,3.79L112,15.58l4.55-10.32L120.39,7c2.72,1.2,4.47,2.73,3.33,5.33a3.13,3.13,0,0,1-3.31,2l.71,5.35Zm1.28-9.17L118,8.52l-1,2.18,1.48.65c1.17.52,2.12.81,2.55-.17S120.67,9.69,119.5,9.18Zm13,10.91c1.3-2,.71-3.72-.71-4.63s-3.18-.73-4.49,1.3-.76,3.8.65,4.7S131.19,22.13,132.5,20.09Zm2.4,1.55a5.57,5.57,0,0,1-8.18,1.73,5.54,5.54,0,0,1-1.82-8.15c2-3.06,5.16-3.58,8.12-1.68S136.86,18.58,134.9,21.64Zm7.79-.91-5.81,6.75L141,31.06l-1.56,1.8-6.2-5.35L140.65,19Zm8,7.59-6.59,6,3.7,4.06L146,40l-5.51-6.06,8.34-7.6Zm9.16,23c2.66-1.44,1.85-3.44.9-5.19l-.29-.54-5.74,3.11.29.54C156,51,157.18,52.75,159.84,51.31Zm1.42-9.24L162.81,45c1.78,3.29,2.23,6.79-1.61,8.87s-6.54-.22-8.32-3.51l-1.55-2.87Zm3.83,22.44c2.29-.77,2.89-2.46,2.36-4.05s-2-2.57-4.32-1.8-3,2.48-2.44,4.06S162.81,65.28,165.09,64.51Zm.91,2.71a5.58,5.58,0,0,1-7.47-3.77,5.56,5.56,0,0,1,3.69-7.5c3.45-1.16,6.27.45,7.39,3.78S169.45,66.06,166,67.22Zm7.22,10.68-7.52,2.64,7.88.31.35,2.84-11.52-1.18-.35-2.89,7.63-2.69-8.06-.75-.35-2.87,10.88-4,.35,2.87L165,74.55l7.88.58ZM161.89,97l.26-3.38,8-3.79-7.71-.6.21-2.69L174,87.4l-.27,3.37-8.05,3.79,7.71.6-.21,2.69Zm-1.64,19.73,3-8a1.08,1.08,0,1,1,2,.76l-3,8a1.09,1.09,0,0,1-2-.76Zm-1.67,12.22c1.93,1.37,1.27,4,0,5.78s-3.34,2.95-5.43,2.07l1.23-2.42a2.18,2.18,0,0,0,2.4-1.11c.58-.82.76-1.61.26-2s-1.07-.14-1.67.42l-1.18,1.08c-1.33,1.22-3.17,2.8-5.07,1.45s-1.57-4.17-.28-6c1.74-2.45,3.91-3.17,6.07-2.26l-1.23,2.42a2.44,2.44,0,0,0-3,1.19c-.54.76-.88,1.71-.23,2.17s1.43-.17,2.28-1l1.05-1C155.21,128.63,156.87,127.72,158.58,128.93Zm-15.77,13.38L140.69,144c-1.52-2-1.2-4.72.8-6.8,2.46-2.58,5.54-2.62,8.18-.1s2.66,5.66.19,8.24c-2,2.07-4.6,2.37-6.64,1l1.55-2.19a2.62,2.62,0,0,0,3.52-.42c1.1-1.16,1.1-2.9-.59-4.52s-3.45-1.56-4.56-.41A2.65,2.65,0,0,0,142.81,142.31Zm-11.66,4.28,4.47,1.77,1.35-1L134.42,144l2.14-1.65,6.92,8.91-3.34,2.6c-2.35,1.82-4.54,2.64-6.28.4a3.14,3.14,0,0,1-.17-3.85l-5-1.92Zm7.46,5.48,1.28-1-1.46-1.88-1.28,1c-1,.78-1.71,1.48-1.06,2.33S137.6,152.85,138.61,152.07Zm-15.75,6.28c1.17,2.11,2.94,2.38,4.41,1.56s2.15-2.46,1-4.57-3-2.46-4.44-1.65S121.68,156.24,122.86,158.35Zm-2.5,1.39A5.94,5.94,0,0,1,130.74,154c1.77,3.18.72,6.24-2.36,8S122.13,162.92,120.36,159.74Zm-2.91,7.3-3.18-8.32-5.13,2-.85-2.23,7.65-2.92,4,10.54Zm-10.58,3.41-2.07-8.66-5.34,1.28-.56-2.32,8-1.9,2.63,11ZM82.09,167c-.13,3,2,3.36,4,3.44l.61,0,.28-6.52-.61,0C84.38,163.8,82.23,164,82.09,167Zm7.2,6L86,172.79c-3.74-.16-7-1.58-6.79-5.94s3.54-5.5,7.28-5.34l3.26.15ZM68,164.57c-.55,2.35.58,3.74,2.21,4.13s3.25-.38,3.8-2.73-.55-3.83-2.17-4.21S68.58,162.22,68,164.57Zm-2.78-.65a5.58,5.58,0,0,1,7.14-4.38,5.56,5.56,0,0,1,4.43,7.08c-.83,3.55-3.67,5.1-7.09,4.3S64.42,167.46,65.25,163.92Zm-12.83.64,1.65-7.8-4.36,6.58-2.6-1.18,7-9.23,2.65,1.19L55.08,162l4.83-6.49,2.64,1.18L60.3,168.1l-2.64-1.19,1.9-7.64L55,165.7Zm-10.56-19.4,2.78,1.92L43.88,156l4.39-6.37,2.22,1.54-6.41,9.29-2.78-1.92.76-8.87L37.67,156l-2.22-1.54ZM25.32,134.29l5.62,6.4a1.08,1.08,0,1,1-1.63,1.43l-5.63-6.39a1.09,1.09,0,0,1,1.64-1.44Zm-10-7.1c-2.1,1.08-4.17-.75-5.14-2.64s-1.08-4.32.66-5.77L12.4,121a2.19,2.19,0,0,0-.12,2.64c.46.89,1.08,1.42,1.62,1.14s.61-.89.4-1.68l-.42-1.54c-.47-1.75-1-4.11,1-5.17,2.23-1.15,4.43.53,5.45,2.51,1.37,2.68,1,4.93-.8,6.44L18,123.12a2.45,2.45,0,0,0,.31-3.19c-.42-.83-1.11-1.56-1.82-1.2s-.51,1.35-.21,2.46l.37,1.38C17.12,124.34,17.16,126.23,15.3,127.19Zm-4.51-20.25-.45-2.64c2.5-.39,4.72,1.15,5.62,3.9,1.11,3.39-.31,6.13-3.78,7.26s-6.24-.32-7.35-3.71c-.89-2.73.08-5.18,2.29-6.31l1.19,2.4A2.6,2.6,0,0,0,7,111.14c.5,1.52,2,2.34,4.26,1.61s3-2.31,2.51-3.83A2.65,2.65,0,0,0,10.79,106.94Zm1.9-12.35-3.75,3L9.2,99.3l4.1-.61.4,2.68L2.53,103l-.62-4.19c-.44-2.94-.08-5.24,2.73-5.66a3.12,3.12,0,0,1,3.44,1.74l4.14-3.46ZM4.25,98.41l.24,1.6,2.35-.35-.24-1.6C6.41,96.8,6.15,95.84,5.09,96S4.06,97.15,4.25,98.41ZM6.72,81.49c-2.41-.06-3.55,1.32-3.6,3s1,3.1,3.44,3.16,3.64-1.31,3.68-3S9.13,81.56,6.72,81.49Zm.08-2.85a5.94,5.94,0,0,1-.31,11.88C2.85,90.42.75,88,.85,84.44S3.16,78.54,6.8,78.64ZM2.09,72.25l8.76,1.65,1-5.39L14.2,69l-1.52,8L1.59,74.91ZM4.75,61.4l8.46,2.82L14.94,59l2.26.75-2.59,7.77L3.9,64ZM20.47,42.18c-2.54-1.64-3.9,0-5,1.7l-.33.52,5.49,3.54.33-.52C22.06,45.75,23,43.82,20.47,42.18Zm-8.77,3.2,1.76-2.74c2-3.15,4.89-5.23,8.56-2.86s3,5.83.93,9L21.18,51.5ZM29.39,31.2c-1.8-1.62-3.56-1.31-4.69-.06s-1.24,3,.55,4.64,3.63,1.37,4.74.13S31.18,32.81,29.39,31.2Zm1.91-2.12a5.56,5.56,0,0,1,.38,8.35,5.54,5.54,0,0,1-8.34.47c-2.7-2.43-2.69-5.67-.33-8.29S28.6,26.64,31.3,29.08Zm5.42-11.56,6.11,5.12L39.07,15.7,41.33,14,46.2,24.46l-2.3,1.78-6.21-5.19,3.47,7.31-2.29,1.77-9-7.32L32.17,21,38,26.31l-3.53-7.08Zm22.09-.22-3,1.56L48.33,14l3.57,6.86-2.4,1.25-5.2-10,3-1.56,7.47,4.83L51.21,8.53l2.4-1.25ZM76.29,8,68,9.84a1.09,1.09,0,0,1-.46-2.13L75.83,5.9a1.08,1.08,0,0,1,1.29.83A1.09,1.09,0,0,1,76.29,8Z" transform="translate(-0.84 -0.04)"/>
      </g>
    </g>
  </g>
</svg>
