<svg id="Layer_1" data-name="Layer 1" xmlns="http://www.w3.org/2000/svg" viewBox="0 0 421.99 421.99">
  <defs>
    <style>
      .cls-1 {
        fill: #ff2b06;
      }
    </style>
  </defs>
  <path class="cls-1" d="M466.72,107.93a7,7,0,0,0-5.2-4.88l-42.9-9.69-9.69-42.9a7,7,0,0,0-11.77-3.41L347.82,96.4c-94.4-57-217.11-26.61-274.07,67.78S47.14,381.29,141.54,438.25s217.1,26.61,274.06-67.79a199.62,199.62,0,0,0,0-206.28L465,114.82a7,7,0,0,0,1.76-6.89ZM430.3,267.35c0,102.52-83.13,185.61-185.65,185.6S59,369.81,59.05,267.3,142.18,81.68,244.7,81.7a185.58,185.58,0,0,1,92.9,24.93l-22.66,22.66a7.25,7.25,0,0,0-.54.7A154.25,154.25,0,1,0,382,197.66a6.83,6.83,0,0,0,.73-.6l22.66-22.66a185.09,185.09,0,0,1,24.93,93Zm-64.94-70.86a139.85,139.85,0,1,1-49.86-49.91l7.37,32.65-7.07,7.07a108.12,108.12,0,1,0,9.9,9.9l7.07-7.07Zm-90.61,70.86a30.21,30.21,0,1,1-14.38-25.62L239.7,262.4a7,7,0,1,0,9.73,10.07l.17-.17,20.67-20.68A29.85,29.85,0,0,1,274.75,267.35Zm-4.3-35.7a44.3,44.3,0,1,0,9.89,9.9l35.44-35.43a94.06,94.06,0,1,1-9.9-9.9Zm131.37-73.5-26.27,26.27-3.94-.89-.15,0L336.4,175.6l-8.84-39.13,70.53-70.54L406,100.75a7,7,0,0,0,5.29,5.29l34.82,7.87Z" transform="translate(-45.01 -45)"/>
</svg>
