<svg id="Capa_1" data-name="Capa 1" xmlns="http://www.w3.org/2000/svg" viewBox="0 0 512 469.33">
  <defs>
    <style>
      .cls-1 {
        fill: #ff2b06;
      }
    </style>
  </defs>
  <g>
    <path class="cls-1" d="M503.28,129C437.25,59.58,349.43,21.33,256,21.33S74.75,59.58,8.72,129a32.54,32.54,0,0,0,0,44.34l49.19,51.73c11.59,12.15,32.05,12.15,43.63,0a216.47,216.47,0,0,1,55.51-42.33c10.19-5.26,16.77-16.31,16.69-26.75L181.16,100c54.42-17.4,95.82-17.39,149.7,0l7.34,54.67a32.07,32.07,0,0,0,16.52,28.25,216.74,216.74,0,0,1,55.61,42.37,29.94,29.94,0,0,0,43.63,0l49.32-51.87A32.55,32.55,0,0,0,503.28,129Z" transform="translate(0 -21.33)"/>
    <path class="cls-1" d="M394.79,220.23A53.24,53.24,0,0,0,347.73,192H164.27a53.24,53.24,0,0,0-47.06,28.23l-68.27,128a53.5,53.5,0,0,0-6.27,25.09V448a42.71,42.71,0,0,0,42.66,42.67H426.67A42.71,42.71,0,0,0,469.33,448V373.33a53.57,53.57,0,0,0-6.27-25.1ZM256,426.67a85.34,85.34,0,1,1,85.33-85.34A85.42,85.42,0,0,1,256,426.67Z" transform="translate(0 -21.33)"/>
  </g>
</svg>
