<svg id="Layer_1" data-name="Layer 1" xmlns="http://www.w3.org/2000/svg" viewBox="0 0 293.1 114.2">
  <defs>
    <style>
      .cls-1 {
        fill: #ff2b06;
      }
    </style>
  </defs>
  <g>
    <path class="cls-1" d="M77.9,89.6a57.13,57.13,0,0,0-47.7,25.8H6a6,6,0,0,0,0,12H24.2a56,56,0,0,0-3.4,19.3A57.1,57.1,0,1,0,77.9,89.6Zm0,102.1A45.1,45.1,0,1,1,123,146.6,45.17,45.17,0,0,1,77.9,191.7Z" transform="translate(0 -89.6)"/>
    <path class="cls-1" d="M287.2,115.3h-27a56.42,56.42,0,0,0-10.5-11.9,57.16,57.16,0,0,0-85.8,13.2,23.89,23.89,0,0,0-18.8-9.2,24.23,24.23,0,0,0-11.5,2.9,6,6,0,0,0,5.7,10.5,11.46,11.46,0,0,1,5.7-1.4,11.86,11.86,0,0,1,11.9,11.9,4.87,4.87,0,0,0,.1,1.2,55.26,55.26,0,0,0-1.8,14.2,57.1,57.1,0,0,0,110.5,20.2,6,6,0,0,0-11.2-4.2,45.16,45.16,0,1,1,2.3-23,6,6,0,0,0,11.9-1.9,60,60,0,0,0-2.7-10.3h21.1a6.1,6.1,0,0,0,.1-12.2Z" transform="translate(0 -89.6)"/>
  </g>
</svg>
